<?xml version="1.0" encoding="UTF-8"?>
<svg xmlns="http://www.w3.org/2000/svg" width="3000" height="750" viewBox="0 0 3000 750" fill="none">
  <title>AVENIR Facility Management logo variant</title>
  <desc>Transparent background logo lockup.</desc>
  <path d="M 815 51 L 814 51 L 814 52 L 813 53 L 813 54 L 812 55 L 812 56 L 811 57 L 811 58 L 810 59 L 810 60 L 809 61 L 809 62 L 808 63 L 808 64 L 807 65 L 807 66 L 806 67 L 806 68 L 805 69 L 804 72 L 802 74 L 802 75 L 801 76 L 801 77 L 800 78 L 800 79 L 799 80 L 799 81 L 798 82 L 798 83 L 797 84 L 797 85 L 796 86 L 796 87 L 795 88 L 795 89 L 794 90 L 794 91 L 793 92 L 793 93 L 792 94 L 791 97 L 789 99 L 789 100 L 788 101 L 788 102 L 787 103 L 786 106 L 784 108 L 784 109 L 783 110 L 783 112 L 782 113 L 781 116 L 779 118 L 779 120 L 777 122 L 777 123 L 776 124 L 776 125 L 775 126 L 774 129 L 772 131 L 772 132 L 769 137 L 769 139 L 767 141 L 767 142 L 766 143 L 766 144 L 765 145 L 765 146 L 764 147 L 763 150 L 761 152 L 761 153 L 760 154 L 760 155 L 759 156 L 759 157 L 758 158 L 758 159 L 757 160 L 757 161 L 756 162 L 756 163 L 755 164 L 755 165 L 754 166 L 754 167 L 753 168 L 753 169 L 752 170 L 751 173 L 749 175 L 749 176 L 748 177 L 748 178 L 747 179 L 747 180 L 746 181 L 746 182 L 745 183 L 745 184 L 744 185 L 744 186 L 743 187 L 743 188 L 742 189 L 742 190 L 741 191 L 741 192 L 740 193 L 740 194 L 739 195 L 739 196 L 738 197 L 737 200 L 735 202 L 735 203 L 734 204 L 734 205 L 733 206 L 733 207 L 732 208 L 732 209 L 731 210 L 731 211 L 730 212 L 730 213 L 729 214 L 729 215 L 728 216 L 728 217 L 727 218 L 727 219 L 726 220 L 725 223 L 722 226 L 722 228 L 721 229 L 721 230 L 719 232 L 719 233 L 717 236 L 717 238 L 715 240 L 715 241 L 714 242 L 714 243 L 713 244 L 713 245 L 712 246 L 711 249 L 709 251 L 709 252 L 708 253 L 708 254 L 707 255 L 707 256 L 706 257 L 706 258 L 705 259 L 705 260 L 704 261 L 704 262 L 703 263 L 703 264 L 702 265 L 702 266 L 701 267 L 701 268 L 700 269 L 700 270 L 699 271 L 698 274 L 696 276 L 696 277 L 695 278 L 695 279 L 694 280 L 694 281 L 693 282 L 693 283 L 692 284 L 692 285 L 691 286 L 691 287 L 690 288 L 690 289 L 689 290 L 689 291 L 688 292 L 688 293 L 687 294 L 687 295 L 686 296 L 685 299 L 683 301 L 683 302 L 682 303 L 681 306 L 679 308 L 677 314 L 675 316 L 675 317 L 674 318 L 674 319 L 673 320 L 673 321 L 672 322 L 672 323 L 671 324 L 670 327 L 668 329 L 668 330 L 667 331 L 667 332 L 666 333 L 666 334 L 665 335 L 665 336 L 664 337 L 664 338 L 663 339 L 663 340 L 662 341 L 662 342 L 661 343 L 661 344 L 660 345 L 660 346 L 659 347 L 658 350 L 656 352 L 656 353 L 655 354 L 655 355 L 654 356 L 654 357 L 653 358 L 653 359 L 652 360 L 652 361 L 651 362 L 651 363 L 650 364 L 650 365 L 649 366 L 649 367 L 648 368 L 648 369 L 647 370 L 647 371 L 646 372 L 645 375 L 643 377 L 643 378 L 642 379 L 642 380 L 641 381 L 641 382 L 640 383 L 640 384 L 639 385 L 639 386 L 638 387 L 638 388 L 637 389 L 637 390 L 636 391 L 636 392 L 635 393 L 635 394 L 634 395 L 634 396 L 633 397 L 632 400 L 630 402 L 629 405 L 627 407 L 627 408 L 624 413 L 624 415 L 620 421 L 620 423 L 618 425 L 618 426 L 617 427 L 616 430 L 614 432 L 614 433 L 613 434 L 613 435 L 612 436 L 612 437 L 611 438 L 611 439 L 610 440 L 610 441 L 609 442 L 609 443 L 608 444 L 608 445 L 607 446 L 606 449 L 604 451 L 604 452 L 603 453 L 603 454 L 602 455 L 602 456 L 601 457 L 601 458 L 600 459 L 600 460 L 599 461 L 599 462 L 598 463 L 598 464 L 597 465 L 597 466 L 596 467 L 596 468 L 595 469 L 595 470 L 594 471 L 593 474 L 591 476 L 591 477 L 590 478 L 591 479 L 593 477 L 594 477 L 597 474 L 600 473 L 605 469 L 606 469 L 607 468 L 610 467 L 612 465 L 615 464 L 617 462 L 618 462 L 619 461 L 620 461 L 621 460 L 624 459 L 626 457 L 627 457 L 628 456 L 630 456 L 631 455 L 632 455 L 633 454 L 636 453 L 638 451 L 640 451 L 641 450 L 642 450 L 644 448 L 645 448 L 646 447 L 648 447 L 653 444 L 655 444 L 658 442 L 660 442 L 661 441 L 662 441 L 663 440 L 665 440 L 668 438 L 670 438 L 671 437 L 673 437 L 675 435 L 677 435 L 678 434 L 680 434 L 681 433 L 683 433 L 684 432 L 686 432 L 687 431 L 689 431 L 690 430 L 693 430 L 694 429 L 696 429 L 697 428 L 700 428 L 701 427 L 703 427 L 704 426 L 706 426 L 707 425 L 710 425 L 711 424 L 714 424 L 717 422 L 721 422 L 722 421 L 725 421 L 726 420 L 730 420 L 731 419 L 735 419 L 736 418 L 740 418 L 741 417 L 746 417 L 747 416 L 752 416 L 753 415 L 760 415 L 761 414 L 768 414 L 769 413 L 772 413 L 772 412 L 773 411 L 773 410 L 774 409 L 774 408 L 775 407 L 775 406 L 776 405 L 776 404 L 777 403 L 777 402 L 778 401 L 778 400 L 779 399 L 780 396 L 782 394 L 782 393 L 783 392 L 783 391 L 784 390 L 784 389 L 785 388 L 785 387 L 786 386 L 786 385 L 787 384 L 787 383 L 788 382 L 788 381 L 789 380 L 789 379 L 790 378 L 790 377 L 791 376 L 791 375 L 792 374 L 793 371 L 795 369 L 795 368 L 796 367 L 796 366 L 797 365 L 797 364 L 798 363 L 798 362 L 799 361 L 799 360 L 800 359 L 800 358 L 801 357 L 801 356 L 802 355 L 803 352 L 805 350 L 805 349 L 806 348 L 806 347 L 807 346 L 807 345 L 808 344 L 808 343 L 809 342 L 810 339 L 812 337 L 812 336 L 814 333 L 814 331 L 815 330 L 815 329 L 817 327 L 817 326 L 818 325 L 818 324 L 819 323 L 819 322 L 820 321 L 821 318 L 823 316 L 823 315 L 824 314 L 824 313 L 825 312 L 825 311 L 826 310 L 826 309 L 827 308 L 827 307 L 828 306 L 828 305 L 829 304 L 829 303 L 830 302 L 830 301 L 831 300 L 831 299 L 832 298 L 833 295 L 835 293 L 835 292 L 836 291 L 836 290 L 837 289 L 837 288 L 838 287 L 838 286 L 839 285 L 839 284 L 840 283 L 840 282 L 841 281 L 841 280 L 842 279 L 842 278 L 843 277 L 843 276 L 844 275 L 844 274 L 845 273 L 846 270 L 848 268 L 848 267 L 849 266 L 849 265 L 850 264 L 850 263 L 851 262 L 851 261 L 852 260 L 852 259 L 853 258 L 853 257 L 854 256 L 854 255 L 855 254 L 855 253 L 856 252 L 856 251 L 857 250 L 857 249 L 858 248 L 859 245 L 861 243 L 861 242 L 862 241 L 863 238 L 865 236 L 865 235 L 866 234 L 866 233 L 867 232 L 867 231 L 868 230 L 868 229 L 869 228 L 869 227 L 872 222 L 872 220 L 875 217 L 875 216 L 876 215 L 876 214 L 877 213 L 877 212 L 878 211 L 878 210 L 879 209 L 879 208 L 880 207 L 880 206 L 881 205 L 881 204 L 882 203 L 882 202 L 883 201 L 883 200 L 884 199 L 884 198 L 885 197 L 886 194 L 888 192 L 888 189 L 887 188 L 887 187 L 886 186 L 886 185 L 885 184 L 885 183 L 884 182 L 884 181 L 883 180 L 883 179 L 882 178 L 882 177 L 881 176 L 881 175 L 880 174 L 880 173 L 879 172 L 879 171 L 878 170 L 877 167 L 875 165 L 874 162 L 872 160 L 872 158 L 871 157 L 870 154 L 868 152 L 868 150 L 867 149 L 867 148 L 866 147 L 865 144 L 863 142 L 863 141 L 862 140 L 861 137 L 859 135 L 859 134 L 858 133 L 858 132 L 857 131 L 857 130 L 856 129 L 856 128 L 855 127 L 855 126 L 854 125 L 854 124 L 853 123 L 853 122 L 852 121 L 852 120 L 851 119 L 851 118 L 850 117 L 850 116 L 849 115 L 848 112 L 846 110 L 846 109 L 845 108 L 845 107 L 844 106 L 844 105 L 843 104 L 843 103 L 842 102 L 842 101 L 841 100 L 841 99 L 840 98 L 840 97 L 839 96 L 839 95 L 838 94 L 838 93 L 837 92 L 837 91 L 836 90 L 835 87 L 833 85 L 833 84 L 832 83 L 832 82 L 831 81 L 830 78 L 828 76 L 828 75 L 827 74 L 827 72 L 826 71 L 826 70 L 825 69 L 825 68 L 824 67 L 823 64 L 821 62 L 821 61 L 820 60 L 820 59 L 819 58 L 818 55 L 816 53 L 816 52 Z" fill="#CF3339" fill-rule="evenodd"/>
  <path d="M 1398 210 L 1395 215 L 1395 217 L 1394 218 L 1394 219 L 1393 220 L 1393 222 L 1390 227 L 1390 229 L 1388 232 L 1388 234 L 1387 235 L 1387 236 L 1386 237 L 1386 238 L 1385 239 L 1385 240 L 1384 241 L 1384 242 L 1381 247 L 1381 249 L 1380 250 L 1380 251 L 1379 252 L 1379 254 L 1376 259 L 1376 261 L 1374 264 L 1374 266 L 1373 267 L 1373 268 L 1371 270 L 1371 272 L 1370 273 L 1370 274 L 1367 279 L 1367 281 L 1366 282 L 1366 283 L 1365 284 L 1365 286 L 1362 291 L 1362 293 L 1360 296 L 1360 298 L 1358 300 L 1358 301 L 1357 302 L 1357 304 L 1354 309 L 1354 311 L 1352 314 L 1352 316 L 1351 317 L 1351 318 L 1348 323 L 1348 325 L 1347 326 L 1347 328 L 1345 330 L 1345 331 L 1343 334 L 1343 336 L 1340 341 L 1340 343 L 1339 344 L 1339 345 L 1338 346 L 1338 348 L 1335 353 L 1335 355 L 1334 356 L 1334 357 L 1333 358 L 1333 359 L 1332 360 L 1332 361 L 1329 366 L 1329 368 L 1328 369 L 1328 370 L 1326 373 L 1326 375 L 1323 380 L 1323 382 L 1321 385 L 1321 387 L 1320 388 L 1320 389 L 1319 390 L 1319 391 L 1318 392 L 1318 393 L 1315 398 L 1315 400 L 1314 401 L 1314 402 L 1313 403 L 1313 405 L 1310 410 L 1310 412 L 1308 415 L 1308 417 L 1307 418 L 1307 419 L 1305 421 L 1305 423 L 1302 428 L 1302 430 L 1300 433 L 1300 435 L 1299 436 L 1299 437 L 1296 442 L 1296 444 L 1295 445 L 1295 447 L 1294 448 L 1337 448 L 1337 447 L 1339 444 L 1339 442 L 1340 441 L 1340 439 L 1341 438 L 1341 437 L 1343 434 L 1343 432 L 1345 429 L 1345 427 L 1346 426 L 1346 425 L 1348 422 L 1348 420 L 1349 419 L 1349 418 L 1352 413 L 1352 411 L 1354 408 L 1354 406 L 1356 404 L 1356 402 L 1357 401 L 1357 399 L 1358 398 L 1358 396 L 1361 391 L 1472 391 L 1473 392 L 1473 394 L 1475 396 L 1475 398 L 1476 399 L 1476 401 L 1477 402 L 1477 403 L 1479 405 L 1479 407 L 1481 410 L 1481 412 L 1483 415 L 1483 417 L 1485 420 L 1485 422 L 1487 425 L 1487 427 L 1489 430 L 1489 432 L 1490 433 L 1490 434 L 1492 436 L 1492 438 L 1493 439 L 1493 441 L 1494 442 L 1494 443 L 1497 448 L 1541 448 L 1538 443 L 1538 441 L 1536 438 L 1536 436 L 1535 436 L 1534 435 L 1534 433 L 1533 432 L 1533 430 L 1532 429 L 1532 428 L 1529 423 L 1529 421 L 1528 420 L 1528 419 L 1527 418 L 1527 416 L 1524 411 L 1524 409 L 1523 408 L 1523 407 L 1522 406 L 1522 405 L 1519 400 L 1519 398 L 1516 393 L 1516 391 L 1515 390 L 1515 389 L 1514 388 L 1514 386 L 1513 385 L 1513 384 L 1510 379 L 1510 377 L 1508 375 L 1508 373 L 1507 372 L 1507 371 L 1505 368 L 1505 366 L 1502 361 L 1502 359 L 1500 356 L 1500 354 L 1498 352 L 1498 350 L 1497 349 L 1497 347 L 1496 346 L 1496 345 L 1494 343 L 1494 341 L 1493 340 L 1493 339 L 1491 336 L 1491 334 L 1488 329 L 1488 327 L 1487 326 L 1487 325 L 1486 324 L 1486 322 L 1483 317 L 1483 315 L 1481 313 L 1481 311 L 1480 310 L 1480 309 L 1477 304 L 1477 302 L 1476 301 L 1476 300 L 1475 299 L 1475 297 L 1472 292 L 1472 290 L 1471 289 L 1471 288 L 1470 287 L 1470 286 L 1467 281 L 1467 279 L 1466 278 L 1466 277 L 1463 272 L 1463 270 L 1462 269 L 1462 267 L 1461 266 L 1461 265 L 1458 260 L 1458 258 L 1457 257 L 1457 256 L 1455 254 L 1455 252 L 1454 251 L 1454 250 L 1453 249 L 1453 247 L 1450 242 L 1450 240 L 1448 237 L 1448 235 L 1447 234 L 1447 233 L 1445 230 L 1445 228 L 1444 227 L 1444 226 L 1443 225 L 1443 224 L 1442 223 L 1442 222 L 1441 221 L 1441 220 L 1438 215 L 1438 213 L 1437 212 L 1437 211 L 1436 210 Z M 1416 261 L 1417 261 L 1418 262 L 1418 264 L 1419 265 L 1419 267 L 1420 268 L 1420 269 L 1422 272 L 1422 274 L 1423 275 L 1423 276 L 1424 277 L 1424 278 L 1427 283 L 1427 285 L 1430 290 L 1430 292 L 1431 293 L 1431 294 L 1432 295 L 1432 297 L 1435 302 L 1435 304 L 1436 305 L 1436 306 L 1437 307 L 1437 308 L 1440 313 L 1440 315 L 1443 320 L 1443 322 L 1445 325 L 1445 327 L 1447 330 L 1447 332 L 1450 337 L 1450 339 L 1452 341 L 1452 342 L 1453 343 L 1453 345 L 1456 350 L 1456 352 L 1457 353 L 1457 354 L 1456 355 L 1377 355 L 1376 354 L 1376 353 L 1378 351 L 1378 349 L 1379 348 L 1379 347 L 1380 346 L 1380 344 L 1383 339 L 1383 337 L 1385 334 L 1385 332 L 1386 331 L 1386 330 L 1388 327 L 1388 325 L 1389 324 L 1389 323 L 1392 318 L 1392 316 L 1393 315 L 1393 314 L 1396 309 L 1396 307 L 1397 306 L 1397 304 L 1398 303 L 1398 302 L 1401 297 L 1401 295 L 1402 294 L 1402 293 L 1405 288 L 1405 286 L 1407 283 L 1407 281 L 1410 276 L 1410 274 L 1412 271 L 1412 269 L 1413 268 L 1413 267 L 1415 264 L 1415 262 Z" fill="#CF3339" fill-rule="evenodd"/>
  <path d="M 1512 212 L 1512 213 L 1514 216 L 1514 218 L 1516 221 L 1516 223 L 1518 225 L 1518 227 L 1520 230 L 1520 232 L 1523 237 L 1523 239 L 1524 240 L 1524 242 L 1525 243 L 1525 245 L 1526 246 L 1526 247 L 1529 252 L 1529 254 L 1531 256 L 1531 258 L 1532 259 L 1532 260 L 1533 261 L 1533 263 L 1535 266 L 1535 268 L 1536 269 L 1536 271 L 1538 274 L 1538 276 L 1540 279 L 1540 281 L 1542 284 L 1542 286 L 1543 287 L 1543 288 L 1546 293 L 1546 295 L 1549 300 L 1549 302 L 1551 305 L 1551 307 L 1552 308 L 1552 310 L 1554 313 L 1554 315 L 1555 316 L 1555 317 L 1557 319 L 1557 321 L 1558 322 L 1558 324 L 1559 325 L 1559 326 L 1560 327 L 1560 329 L 1563 334 L 1563 336 L 1564 337 L 1564 339 L 1567 344 L 1567 346 L 1568 347 L 1568 349 L 1569 350 L 1569 351 L 1571 353 L 1571 355 L 1573 358 L 1573 360 L 1574 361 L 1574 362 L 1575 363 L 1575 365 L 1577 368 L 1577 370 L 1578 371 L 1578 373 L 1580 376 L 1580 378 L 1582 381 L 1582 383 L 1584 385 L 1584 387 L 1585 388 L 1585 389 L 1586 390 L 1586 392 L 1589 397 L 1589 399 L 1590 400 L 1590 402 L 1593 407 L 1593 409 L 1595 412 L 1595 414 L 1597 416 L 1597 418 L 1598 419 L 1598 421 L 1601 426 L 1601 428 L 1603 431 L 1603 433 L 1604 434 L 1604 436 L 1607 441 L 1607 443 L 1608 444 L 1608 446 L 1610 448 L 1611 451 L 1646 451 L 1648 449 L 1648 447 L 1651 442 L 1651 440 L 1653 437 L 1653 435 L 1655 433 L 1655 431 L 1656 430 L 1656 429 L 1657 428 L 1657 426 L 1659 423 L 1659 421 L 1660 420 L 1660 418 L 1662 415 L 1662 413 L 1664 410 L 1664 408 L 1666 405 L 1666 403 L 1668 401 L 1668 399 L 1671 394 L 1671 392 L 1673 389 L 1673 387 L 1675 384 L 1675 382 L 1677 379 L 1677 377 L 1679 374 L 1679 372 L 1681 370 L 1681 368 L 1682 367 L 1682 366 L 1683 365 L 1683 363 L 1685 360 L 1685 358 L 1686 357 L 1686 355 L 1687 354 L 1687 353 L 1688 352 L 1688 350 L 1691 345 L 1691 343 L 1692 342 L 1692 340 L 1694 338 L 1694 337 L 1695 336 L 1695 334 L 1697 331 L 1697 329 L 1699 326 L 1699 324 L 1701 321 L 1701 319 L 1703 316 L 1703 314 L 1705 311 L 1705 309 L 1706 308 L 1706 307 L 1709 302 L 1709 300 L 1712 295 L 1712 293 L 1713 292 L 1713 290 L 1715 287 L 1715 285 L 1717 282 L 1717 280 L 1718 279 L 1718 277 L 1720 275 L 1720 274 L 1721 273 L 1721 271 L 1723 268 L 1723 266 L 1725 263 L 1725 261 L 1726 260 L 1726 259 L 1727 258 L 1727 256 L 1729 253 L 1729 251 L 1730 250 L 1730 248 L 1731 247 L 1731 246 L 1734 241 L 1734 239 L 1735 238 L 1735 237 L 1738 232 L 1738 230 L 1739 229 L 1739 227 L 1741 224 L 1741 222 L 1743 219 L 1743 217 L 1745 214 L 1745 212 L 1700 212 L 1700 213 L 1699 214 L 1699 216 L 1698 217 L 1698 219 L 1696 222 L 1696 224 L 1695 225 L 1695 227 L 1694 228 L 1694 230 L 1692 233 L 1692 235 L 1690 238 L 1690 240 L 1687 245 L 1687 247 L 1686 248 L 1686 250 L 1684 253 L 1684 255 L 1683 256 L 1683 258 L 1681 261 L 1681 263 L 1680 264 L 1680 266 L 1679 267 L 1679 268 L 1677 271 L 1677 273 L 1674 278 L 1674 280 L 1673 281 L 1673 283 L 1671 286 L 1671 288 L 1670 289 L 1670 291 L 1668 294 L 1668 296 L 1667 297 L 1667 299 L 1665 302 L 1665 304 L 1663 307 L 1663 309 L 1660 314 L 1660 316 L 1659 317 L 1659 319 L 1657 322 L 1657 324 L 1656 325 L 1656 327 L 1655 328 L 1655 330 L 1653 333 L 1653 335 L 1651 338 L 1651 340 L 1648 345 L 1648 347 L 1647 348 L 1647 350 L 1644 355 L 1644 357 L 1643 358 L 1643 360 L 1642 361 L 1642 363 L 1641 364 L 1641 366 L 1638 371 L 1638 373 L 1637 374 L 1637 376 L 1635 378 L 1635 380 L 1634 381 L 1634 383 L 1632 386 L 1632 388 L 1631 389 L 1631 391 L 1630 392 L 1628 390 L 1628 389 L 1625 384 L 1625 382 L 1624 381 L 1624 379 L 1622 376 L 1622 374 L 1621 373 L 1621 371 L 1620 370 L 1620 368 L 1618 365 L 1618 363 L 1616 360 L 1616 358 L 1615 357 L 1615 355 L 1613 353 L 1613 351 L 1612 350 L 1612 348 L 1610 345 L 1610 343 L 1608 340 L 1608 338 L 1607 337 L 1607 335 L 1606 334 L 1606 332 L 1603 327 L 1603 325 L 1602 324 L 1602 322 L 1600 320 L 1600 318 L 1599 317 L 1599 315 L 1598 314 L 1598 313 L 1597 312 L 1597 310 L 1595 307 L 1595 305 L 1594 304 L 1594 302 L 1592 299 L 1592 297 L 1591 296 L 1591 294 L 1589 291 L 1589 289 L 1586 284 L 1586 282 L 1585 281 L 1585 280 L 1584 279 L 1584 277 L 1582 274 L 1582 272 L 1581 271 L 1581 269 L 1580 268 L 1580 266 L 1578 263 L 1578 261 L 1576 258 L 1576 256 L 1574 254 L 1574 252 L 1573 251 L 1573 249 L 1572 248 L 1572 247 L 1571 246 L 1571 244 L 1569 241 L 1569 239 L 1568 238 L 1568 236 L 1567 235 L 1567 233 L 1565 230 L 1565 228 L 1563 225 L 1563 223 L 1562 222 L 1562 220 L 1560 218 L 1560 216 L 1559 215 L 1559 213 L 1558 212 Z" fill="#CF3339" fill-rule="evenodd"/>
  <path d="M 1766 212 L 1766 448 L 1944 448 L 1944 411 L 1809 411 L 1808 410 L 1808 349 L 1809 348 L 1927 348 L 1927 310 L 1809 310 L 1808 309 L 1808 250 L 1809 249 L 1942 249 L 1942 212 Z" fill="#CF3339" fill-rule="evenodd"/>
  <path d="M 1978 212 L 1978 448 L 2019 448 L 2019 282 L 2020 281 L 2023 284 L 2023 285 L 2026 288 L 2026 289 L 2030 293 L 2030 294 L 2034 298 L 2034 299 L 2037 302 L 2037 303 L 2039 305 L 2039 306 L 2042 309 L 2042 310 L 2046 314 L 2046 315 L 2049 318 L 2049 319 L 2053 323 L 2053 324 L 2056 327 L 2056 328 L 2061 333 L 2061 334 L 2063 336 L 2063 337 L 2067 341 L 2067 342 L 2070 345 L 2070 346 L 2075 351 L 2075 352 L 2077 354 L 2077 355 L 2080 358 L 2080 359 L 2084 363 L 2084 364 L 2088 368 L 2088 369 L 2091 372 L 2091 373 L 2093 375 L 2093 376 L 2097 380 L 2097 381 L 2105 390 L 2105 391 L 2108 394 L 2108 395 L 2112 399 L 2112 400 L 2115 403 L 2115 404 L 2119 408 L 2119 409 L 2122 412 L 2122 413 L 2127 418 L 2127 419 L 2129 421 L 2129 422 L 2132 425 L 2132 426 L 2135 429 L 2135 430 L 2139 434 L 2139 435 L 2142 438 L 2142 439 L 2145 442 L 2145 443 L 2149 447 L 2149 448 L 2185 448 L 2185 212 L 2143 212 L 2143 372 L 2142 373 L 2138 369 L 2138 368 L 2135 365 L 2135 364 L 2133 362 L 2133 361 L 2132 361 L 2131 360 L 2131 359 L 2125 352 L 2125 351 L 2123 349 L 2123 348 L 2115 339 L 2115 338 L 2112 335 L 2112 334 L 2109 331 L 2109 330 L 2105 326 L 2105 325 L 2101 321 L 2101 320 L 2098 317 L 2098 316 L 2094 312 L 2094 311 L 2091 308 L 2091 307 L 2087 303 L 2087 302 L 2081 295 L 2081 294 L 2079 292 L 2079 291 L 2078 291 L 2077 290 L 2077 289 L 2074 286 L 2074 285 L 2071 282 L 2071 281 L 2067 277 L 2067 276 L 2064 273 L 2064 272 L 2060 268 L 2060 267 L 2057 264 L 2057 263 L 2053 259 L 2053 258 L 2050 255 L 2050 254 L 2046 250 L 2046 249 L 2043 246 L 2043 245 L 2041 243 L 2041 242 L 2040 242 L 2039 241 L 2039 240 L 2036 237 L 2036 236 L 2033 233 L 2033 232 L 2030 229 L 2030 228 L 2027 225 L 2027 224 L 2023 220 L 2023 219 L 2017 212 Z" fill="#CF3339" fill-rule="evenodd"/>
  <path d="M 2233 212 L 2233 448 L 2274 448 L 2274 212 Z" fill="#CF3339" fill-rule="evenodd"/>
  <path d="M 2323 212 L 2322 213 L 2322 448 L 2364 448 L 2364 367 L 2365 366 L 2416 366 L 2418 368 L 2418 369 L 2421 372 L 2421 373 L 2423 375 L 2423 376 L 2425 378 L 2425 379 L 2427 381 L 2427 382 L 2433 389 L 2433 390 L 2435 392 L 2435 393 L 2437 395 L 2437 396 L 2439 398 L 2439 399 L 2443 403 L 2443 404 L 2445 406 L 2445 407 L 2448 410 L 2449 413 L 2452 416 L 2452 417 L 2454 419 L 2454 420 L 2457 423 L 2457 424 L 2459 426 L 2459 427 L 2461 429 L 2461 430 L 2467 437 L 2467 438 L 2469 440 L 2469 441 L 2472 444 L 2472 445 L 2474 447 L 2474 448 L 2523 448 L 2523 447 L 2521 445 L 2521 444 L 2519 442 L 2519 441 L 2517 439 L 2517 438 L 2514 435 L 2514 434 L 2511 431 L 2511 430 L 2509 428 L 2509 427 L 2506 424 L 2506 423 L 2504 421 L 2504 420 L 2498 413 L 2498 412 L 2496 410 L 2496 409 L 2493 406 L 2493 405 L 2491 403 L 2491 402 L 2489 400 L 2489 399 L 2485 395 L 2485 394 L 2481 389 L 2480 386 L 2477 383 L 2477 382 L 2474 379 L 2474 378 L 2468 371 L 2468 370 L 2466 368 L 2466 367 L 2464 365 L 2464 364 L 2462 362 L 2462 361 L 2461 360 L 2463 358 L 2465 358 L 2470 355 L 2472 355 L 2473 354 L 2474 354 L 2475 353 L 2476 353 L 2477 352 L 2478 352 L 2479 351 L 2480 351 L 2481 350 L 2482 350 L 2483 349 L 2486 348 L 2489 345 L 2490 345 L 2502 333 L 2502 332 L 2505 329 L 2505 328 L 2506 327 L 2507 324 L 2509 322 L 2509 321 L 2510 320 L 2510 318 L 2511 317 L 2511 315 L 2512 314 L 2512 312 L 2514 310 L 2514 307 L 2515 306 L 2515 302 L 2516 301 L 2516 295 L 2517 294 L 2517 280 L 2516 279 L 2516 273 L 2515 272 L 2515 268 L 2514 267 L 2514 264 L 2512 261 L 2512 259 L 2511 258 L 2511 256 L 2510 255 L 2510 254 L 2509 253 L 2509 252 L 2508 251 L 2507 248 L 2505 246 L 2505 245 L 2503 243 L 2503 242 L 2494 233 L 2494 232 L 2493 232 L 2490 229 L 2489 229 L 2484 225 L 2483 225 L 2482 224 L 2481 224 L 2480 223 L 2479 223 L 2478 222 L 2477 222 L 2476 221 L 2475 221 L 2470 218 L 2468 218 L 2467 217 L 2465 217 L 2464 216 L 2461 216 L 2460 215 L 2457 215 L 2456 214 L 2451 214 L 2450 213 L 2445 213 L 2444 212 Z M 2364 250 L 2365 249 L 2434 249 L 2435 250 L 2440 250 L 2441 251 L 2443 251 L 2444 252 L 2447 252 L 2448 253 L 2450 253 L 2451 254 L 2452 254 L 2453 255 L 2454 255 L 2455 256 L 2456 256 L 2457 257 L 2460 258 L 2468 266 L 2468 267 L 2470 269 L 2470 270 L 2471 271 L 2471 273 L 2473 276 L 2473 279 L 2474 280 L 2474 298 L 2473 299 L 2473 301 L 2471 304 L 2471 306 L 2470 307 L 2470 308 L 2468 310 L 2468 311 L 2459 320 L 2458 320 L 2456 322 L 2455 322 L 2450 325 L 2448 325 L 2446 327 L 2443 327 L 2442 328 L 2437 328 L 2436 329 L 2365 329 L 2364 328 Z" fill="#CF3339" fill-rule="evenodd"/>
  <path d="M 914 239 L 914 240 L 912 242 L 912 243 L 911 244 L 911 245 L 910 246 L 909 249 L 907 251 L 907 252 L 906 253 L 906 254 L 905 255 L 905 256 L 904 257 L 904 258 L 903 259 L 903 260 L 902 261 L 902 262 L 901 263 L 901 264 L 900 265 L 900 266 L 899 267 L 899 268 L 898 269 L 898 270 L 897 271 L 896 274 L 894 276 L 894 277 L 893 278 L 893 279 L 892 280 L 892 281 L 891 282 L 891 283 L 890 284 L 890 285 L 889 286 L 889 287 L 888 288 L 888 289 L 887 290 L 887 291 L 886 292 L 885 295 L 883 297 L 883 298 L 882 299 L 882 300 L 881 301 L 881 302 L 880 303 L 880 304 L 879 305 L 879 306 L 878 307 L 878 308 L 877 309 L 877 310 L 876 311 L 876 312 L 875 313 L 875 314 L 874 315 L 873 318 L 871 320 L 871 321 L 870 322 L 870 323 L 869 324 L 869 325 L 868 326 L 868 327 L 867 328 L 866 331 L 864 333 L 864 334 L 862 337 L 862 339 L 861 340 L 861 341 L 859 343 L 859 344 L 858 345 L 858 346 L 857 347 L 856 350 L 854 352 L 854 353 L 853 354 L 853 355 L 852 356 L 852 357 L 851 358 L 851 359 L 850 360 L 850 361 L 849 362 L 849 363 L 848 364 L 848 365 L 847 366 L 847 367 L 846 368 L 846 369 L 845 370 L 845 371 L 844 372 L 843 375 L 841 377 L 841 378 L 840 379 L 840 380 L 839 381 L 839 382 L 838 383 L 838 384 L 837 385 L 837 386 L 836 387 L 836 388 L 835 389 L 835 390 L 834 391 L 834 392 L 833 393 L 833 394 L 832 395 L 832 396 L 831 397 L 830 400 L 828 402 L 828 403 L 827 404 L 827 405 L 826 406 L 826 407 L 825 408 L 824 411 L 838 411 L 839 412 L 853 412 L 854 413 L 861 413 L 862 414 L 869 414 L 870 415 L 877 415 L 878 416 L 883 416 L 884 417 L 889 417 L 890 418 L 894 418 L 895 419 L 899 419 L 900 420 L 904 420 L 905 421 L 909 421 L 910 422 L 913 422 L 916 424 L 919 424 L 920 425 L 923 425 L 924 426 L 926 426 L 927 427 L 929 427 L 930 428 L 933 428 L 934 429 L 937 429 L 938 430 L 940 430 L 941 431 L 943 431 L 944 432 L 946 432 L 947 433 L 949 433 L 950 434 L 952 434 L 953 435 L 955 435 L 957 437 L 959 437 L 960 438 L 962 438 L 963 439 L 964 439 L 965 440 L 967 440 L 970 442 L 972 442 L 973 443 L 975 443 L 976 444 L 977 444 L 978 445 L 979 445 L 984 448 L 986 448 L 988 450 L 989 450 L 990 451 L 991 451 L 996 454 L 998 454 L 999 455 L 1000 455 L 1001 456 L 1004 457 L 1006 459 L 1007 459 L 1008 460 L 1009 460 L 1010 461 L 1013 462 L 1015 464 L 1016 464 L 1017 465 L 1018 465 L 1020 467 L 1021 467 L 1022 468 L 1025 469 L 1027 471 L 1030 472 L 1032 474 L 1033 474 L 1035 476 L 1036 476 L 1038 478 L 1039 478 L 1040 479 L 1040 478 L 1039 477 L 1039 476 L 1038 475 L 1038 474 L 1037 473 L 1037 472 L 1036 471 L 1035 468 L 1033 466 L 1033 465 L 1032 464 L 1032 463 L 1031 462 L 1030 459 L 1028 457 L 1028 455 L 1027 454 L 1026 451 L 1024 449 L 1024 447 L 1023 446 L 1023 445 L 1021 443 L 1021 442 L 1020 441 L 1019 438 L 1017 436 L 1017 435 L 1016 434 L 1016 433 L 1015 432 L 1015 431 L 1014 430 L 1014 429 L 1013 428 L 1013 427 L 1012 426 L 1012 425 L 1011 424 L 1011 423 L 1010 422 L 1010 421 L 1009 420 L 1009 419 L 1008 418 L 1008 417 L 1007 416 L 1006 413 L 1004 411 L 1004 410 L 1003 409 L 1003 408 L 1002 407 L 1002 406 L 1001 405 L 1001 404 L 1000 403 L 1000 402 L 999 401 L 999 400 L 998 399 L 998 398 L 997 397 L 997 396 L 996 395 L 995 392 L 993 390 L 993 389 L 992 388 L 992 387 L 991 386 L 991 385 L 990 384 L 990 383 L 989 382 L 989 381 L 988 380 L 988 379 L 987 378 L 987 377 L 986 376 L 986 375 L 985 374 L 985 373 L 984 372 L 983 369 L 981 367 L 981 366 L 980 365 L 980 364 L 979 363 L 979 362 L 978 361 L 978 360 L 977 359 L 977 358 L 976 357 L 976 356 L 975 355 L 974 352 L 972 350 L 972 348 L 971 347 L 970 344 L 968 342 L 968 341 L 967 340 L 966 337 L 964 335 L 964 334 L 963 333 L 963 332 L 962 331 L 962 330 L 961 329 L 961 328 L 960 327 L 960 326 L 959 325 L 959 324 L 958 323 L 958 322 L 957 321 L 957 320 L 956 319 L 956 318 L 955 317 L 955 316 L 954 315 L 953 312 L 951 310 L 951 309 L 950 308 L 950 307 L 949 306 L 949 305 L 948 304 L 948 303 L 947 302 L 947 301 L 946 300 L 946 299 L 945 298 L 945 297 L 944 296 L 944 295 L 943 294 L 943 293 L 942 292 L 941 289 L 939 287 L 939 286 L 938 285 L 938 284 L 937 283 L 937 282 L 936 281 L 936 280 L 935 279 L 935 278 L 934 277 L 933 274 L 931 272 L 931 270 L 930 269 L 930 268 L 928 266 L 927 263 L 925 261 L 925 259 L 924 258 L 923 255 L 921 253 L 921 252 L 920 251 L 920 250 L 919 249 L 919 248 L 918 247 L 918 246 L 917 245 L 917 244 Z" fill="#FFFFFF" fill-rule="evenodd"/>
  <path d="M 475 697 L 475 698 L 622 698 L 622 697 L 625 694 L 626 691 L 628 689 L 628 688 L 630 686 L 630 685 L 633 682 L 633 681 L 637 677 L 637 676 L 641 672 L 641 671 L 648 664 L 648 663 L 662 649 L 663 649 L 670 642 L 671 642 L 675 638 L 676 638 L 680 634 L 681 634 L 684 631 L 685 631 L 690 627 L 693 626 L 695 624 L 696 624 L 701 620 L 702 620 L 703 619 L 704 619 L 705 618 L 708 617 L 710 615 L 711 615 L 712 614 L 714 614 L 715 613 L 716 613 L 717 612 L 718 612 L 719 611 L 720 611 L 721 610 L 722 610 L 723 609 L 724 609 L 729 606 L 731 606 L 732 605 L 734 605 L 735 604 L 737 604 L 740 602 L 742 602 L 743 601 L 745 601 L 746 600 L 749 600 L 750 599 L 752 599 L 753 598 L 756 598 L 757 597 L 760 597 L 761 596 L 764 596 L 765 595 L 768 595 L 769 594 L 771 594 L 772 593 L 777 593 L 778 592 L 784 592 L 785 591 L 794 591 L 795 590 L 835 590 L 836 591 L 845 591 L 846 592 L 852 592 L 853 593 L 858 593 L 859 594 L 861 594 L 862 595 L 865 595 L 866 596 L 870 596 L 871 597 L 873 597 L 874 598 L 877 598 L 878 599 L 880 599 L 881 600 L 884 600 L 885 601 L 887 601 L 888 602 L 890 602 L 891 603 L 893 603 L 896 605 L 898 605 L 899 606 L 901 606 L 902 607 L 903 607 L 904 608 L 905 608 L 906 609 L 907 609 L 908 610 L 909 610 L 910 611 L 911 611 L 916 614 L 918 614 L 919 615 L 920 615 L 922 617 L 923 617 L 924 618 L 925 618 L 926 619 L 929 620 L 934 624 L 937 625 L 939 627 L 940 627 L 942 629 L 943 629 L 945 631 L 946 631 L 949 634 L 950 634 L 954 638 L 955 638 L 959 642 L 960 642 L 964 646 L 965 646 L 983 664 L 983 665 L 991 673 L 991 674 L 997 681 L 997 682 L 999 684 L 999 685 L 1002 688 L 1002 689 L 1004 691 L 1004 692 L 1006 694 L 1006 695 L 1008 697 L 1008 698 L 1155 698 L 1155 696 L 1154 695 L 1154 693 L 1152 690 L 1152 688 L 1151 687 L 1151 685 L 1149 683 L 1149 681 L 1148 680 L 1148 678 L 1146 675 L 1146 673 L 1143 668 L 1143 666 L 1142 665 L 1142 664 L 1141 663 L 1141 662 L 1140 661 L 1140 660 L 1139 659 L 1138 656 L 1136 654 L 1136 653 L 1135 652 L 1135 651 L 1134 650 L 1134 649 L 1133 648 L 1133 647 L 1132 646 L 1132 645 L 1131 644 L 1131 643 L 1130 642 L 1130 641 L 1129 640 L 1128 637 L 1126 635 L 1125 632 L 1123 630 L 1123 629 L 1121 627 L 1120 624 L 1118 622 L 1118 621 L 1116 619 L 1116 618 L 1114 616 L 1114 615 L 1112 613 L 1112 612 L 1109 609 L 1109 608 L 1107 606 L 1107 605 L 1105 603 L 1105 602 L 1103 600 L 1103 599 L 1098 594 L 1098 593 L 1094 589 L 1094 588 L 1090 584 L 1090 583 L 1083 576 L 1083 575 L 1055 547 L 1054 547 L 1049 542 L 1048 542 L 1042 536 L 1041 536 L 1037 532 L 1036 532 L 1034 530 L 1033 530 L 1030 527 L 1029 527 L 1025 523 L 1024 523 L 1022 521 L 1021 521 L 1019 519 L 1018 519 L 1016 517 L 1015 517 L 1013 515 L 1012 515 L 1010 513 L 1009 513 L 1004 509 L 1003 509 L 1002 508 L 999 507 L 997 505 L 996 505 L 995 504 L 994 504 L 993 503 L 990 502 L 988 500 L 985 499 L 983 497 L 982 497 L 981 496 L 980 496 L 979 495 L 978 495 L 977 494 L 976 494 L 971 491 L 969 491 L 968 490 L 967 490 L 966 489 L 965 489 L 960 486 L 958 486 L 957 485 L 956 485 L 951 482 L 949 482 L 946 480 L 944 480 L 943 479 L 941 479 L 940 478 L 938 478 L 937 477 L 935 477 L 934 476 L 932 476 L 929 474 L 926 474 L 925 473 L 923 473 L 922 472 L 921 472 L 920 471 L 918 471 L 917 470 L 914 470 L 913 469 L 910 469 L 909 468 L 906 468 L 905 467 L 903 467 L 902 466 L 899 466 L 898 465 L 894 465 L 893 464 L 888 464 L 887 463 L 883 463 L 882 462 L 879 462 L 878 461 L 872 461 L 871 460 L 864 460 L 863 459 L 859 459 L 858 458 L 852 458 L 851 457 L 839 457 L 838 456 L 792 456 L 791 457 L 779 457 L 778 458 L 772 458 L 771 459 L 767 459 L 766 460 L 759 460 L 758 461 L 752 461 L 751 462 L 748 462 L 747 463 L 743 463 L 742 464 L 737 464 L 736 465 L 733 465 L 732 466 L 728 466 L 727 467 L 725 467 L 724 468 L 721 468 L 720 469 L 717 469 L 716 470 L 713 470 L 710 472 L 708 472 L 707 473 L 704 473 L 703 474 L 701 474 L 698 476 L 696 476 L 695 477 L 693 477 L 692 478 L 690 478 L 689 479 L 687 479 L 684 481 L 682 481 L 681 482 L 679 482 L 678 483 L 677 483 L 672 486 L 670 486 L 669 487 L 668 487 L 667 488 L 666 488 L 665 489 L 664 489 L 659 492 L 657 492 L 656 493 L 655 493 L 654 494 L 653 494 L 652 495 L 651 495 L 650 496 L 647 497 L 645 499 L 644 499 L 643 500 L 640 501 L 638 503 L 637 503 L 636 504 L 635 504 L 634 505 L 631 506 L 629 508 L 628 508 L 623 512 L 620 513 L 618 515 L 617 515 L 615 517 L 614 517 L 612 519 L 611 519 L 609 521 L 608 521 L 606 523 L 605 523 L 601 527 L 600 527 L 597 530 L 596 530 L 592 534 L 591 534 L 588 537 L 587 537 L 581 543 L 580 543 L 573 550 L 572 550 L 549 573 L 549 574 L 542 581 L 542 582 L 536 588 L 536 589 L 533 592 L 533 593 L 529 597 L 529 598 L 526 601 L 526 602 L 520 609 L 520 610 L 516 615 L 515 618 L 512 621 L 511 624 L 509 626 L 509 627 L 507 629 L 506 632 L 504 634 L 504 635 L 503 636 L 503 637 L 502 638 L 501 641 L 499 643 L 498 646 L 496 648 L 496 649 L 493 654 L 493 656 L 492 657 L 492 658 L 491 659 L 491 660 L 488 665 L 488 667 L 487 668 L 487 669 L 485 671 L 485 673 L 484 674 L 484 675 L 481 680 L 481 682 L 480 683 L 480 685 L 478 688 L 478 690 L 477 691 L 477 693 L 476 694 L 476 696 Z" fill="#CF3339" fill-rule="evenodd"/>
  <path d="M 1380 493 L 1379 494 L 1379 496 L 1376 501 L 1376 503 L 1374 506 L 1374 508 L 1373 509 L 1373 510 L 1372 511 L 1372 512 L 1369 517 L 1369 519 L 1367 522 L 1367 524 L 1366 525 L 1366 526 L 1365 527 L 1365 529 L 1362 534 L 1362 536 L 1361 537 L 1361 539 L 1360 540 L 1359 543 L 1370 543 L 1370 541 L 1372 538 L 1372 536 L 1373 535 L 1373 534 L 1375 532 L 1394 532 L 1396 534 L 1396 536 L 1397 537 L 1397 538 L 1400 543 L 1410 543 L 1410 540 L 1409 539 L 1409 538 L 1408 537 L 1408 535 L 1405 530 L 1405 528 L 1404 527 L 1404 526 L 1401 521 L 1401 519 L 1400 518 L 1400 517 L 1397 512 L 1397 510 L 1396 509 L 1396 507 L 1393 502 L 1393 500 L 1391 497 L 1391 495 L 1389 493 Z M 1385 507 L 1386 508 L 1386 510 L 1387 511 L 1387 513 L 1389 516 L 1389 518 L 1391 521 L 1390 522 L 1380 522 L 1379 521 L 1379 520 L 1380 519 L 1380 517 L 1382 514 L 1382 512 Z" fill="#FFFFFF" fill-rule="evenodd"/>
  <path d="M 1448 495 L 1446 497 L 1445 497 L 1439 503 L 1439 504 L 1437 506 L 1437 507 L 1436 508 L 1436 510 L 1435 511 L 1435 514 L 1434 515 L 1434 522 L 1435 523 L 1435 526 L 1436 527 L 1436 529 L 1437 530 L 1437 531 L 1439 533 L 1439 534 L 1444 539 L 1445 539 L 1446 540 L 1449 541 L 1451 543 L 1454 543 L 1455 544 L 1465 544 L 1466 543 L 1469 543 L 1471 541 L 1472 541 L 1473 540 L 1476 539 L 1479 536 L 1479 534 L 1474 529 L 1472 529 L 1471 530 L 1470 530 L 1468 532 L 1467 532 L 1466 533 L 1464 533 L 1463 534 L 1458 534 L 1457 533 L 1455 533 L 1454 532 L 1453 532 L 1448 527 L 1448 526 L 1447 525 L 1447 523 L 1446 522 L 1446 514 L 1447 513 L 1448 510 L 1450 508 L 1450 507 L 1451 506 L 1452 506 L 1454 504 L 1456 504 L 1457 503 L 1463 503 L 1464 504 L 1466 504 L 1467 505 L 1468 505 L 1470 507 L 1473 508 L 1477 504 L 1477 503 L 1479 501 L 1479 500 L 1476 497 L 1475 497 L 1473 495 L 1471 495 L 1470 494 L 1467 494 L 1466 493 L 1454 493 L 1453 494 L 1451 494 L 1450 495 Z" fill="#FFFFFF" fill-rule="evenodd"/>
  <path d="M 1712 493 L 1711 494 L 1712 495 L 1713 498 L 1716 501 L 1716 502 L 1718 504 L 1719 507 L 1721 509 L 1721 510 L 1725 515 L 1726 518 L 1730 523 L 1730 543 L 1740 543 L 1741 542 L 1741 523 L 1742 522 L 1743 519 L 1745 517 L 1745 516 L 1748 513 L 1748 512 L 1750 510 L 1751 507 L 1753 505 L 1754 502 L 1756 500 L 1756 499 L 1757 498 L 1757 497 L 1759 495 L 1759 494 L 1747 494 L 1747 495 L 1745 497 L 1744 500 L 1742 502 L 1742 503 L 1738 508 L 1737 511 L 1736 512 L 1735 512 L 1731 507 L 1731 506 L 1730 505 L 1729 502 L 1727 500 L 1727 499 L 1724 494 L 1713 494 Z" fill="#FFFFFF" fill-rule="evenodd"/>
  <path d="M 1920 493 L 1920 495 L 1918 498 L 1918 500 L 1917 501 L 1917 502 L 1916 503 L 1916 504 L 1913 509 L 1913 511 L 1912 512 L 1912 513 L 1910 516 L 1910 518 L 1907 523 L 1907 525 L 1905 528 L 1905 530 L 1903 533 L 1903 535 L 1902 536 L 1902 537 L 1899 542 L 1900 543 L 1910 543 L 1910 542 L 1913 537 L 1913 535 L 1915 532 L 1935 532 L 1936 533 L 1936 535 L 1938 538 L 1938 540 L 1940 543 L 1951 543 L 1951 542 L 1950 541 L 1950 539 L 1948 536 L 1948 534 L 1945 529 L 1945 527 L 1944 526 L 1944 525 L 1941 520 L 1941 518 L 1939 515 L 1939 513 L 1936 508 L 1936 506 L 1935 505 L 1935 503 L 1934 502 L 1934 501 L 1933 500 L 1933 499 L 1932 498 L 1932 497 L 1931 496 L 1930 493 Z M 1925 508 L 1926 509 L 1926 510 L 1927 511 L 1927 512 L 1930 517 L 1930 519 L 1931 520 L 1931 521 L 1930 522 L 1920 522 L 1919 521 L 1920 520 L 1920 518 L 1922 515 L 1922 513 Z" fill="#FFFFFF" fill-rule="evenodd"/>
  <path d="M 2068 493 L 2067 494 L 2067 496 L 2064 501 L 2064 503 L 2062 506 L 2062 508 L 2061 509 L 2061 510 L 2060 511 L 2060 512 L 2057 517 L 2057 519 L 2055 522 L 2055 524 L 2054 525 L 2054 526 L 2053 527 L 2053 529 L 2050 534 L 2050 536 L 2049 537 L 2049 539 L 2048 540 L 2047 543 L 2058 543 L 2058 541 L 2060 538 L 2060 536 L 2061 535 L 2061 534 L 2063 532 L 2082 532 L 2084 534 L 2084 536 L 2085 537 L 2085 538 L 2088 543 L 2098 543 L 2098 540 L 2096 537 L 2096 535 L 2094 532 L 2094 530 L 2093 529 L 2093 528 L 2092 527 L 2092 526 L 2089 521 L 2089 519 L 2086 514 L 2086 512 L 2085 511 L 2085 510 L 2084 509 L 2084 507 L 2081 502 L 2081 500 L 2079 497 L 2079 495 L 2077 493 Z M 2073 507 L 2074 508 L 2074 510 L 2075 511 L 2075 513 L 2077 516 L 2077 518 L 2079 521 L 2078 522 L 2068 522 L 2067 521 L 2067 520 L 2068 519 L 2068 517 L 2070 514 L 2070 512 Z" fill="#FFFFFF" fill-rule="evenodd"/>
  <path d="M 2139 494 L 2138 495 L 2137 495 L 2136 496 L 2133 497 L 2128 502 L 2128 503 L 2125 506 L 2125 507 L 2124 508 L 2124 510 L 2123 511 L 2123 514 L 2122 515 L 2122 522 L 2123 523 L 2123 526 L 2124 527 L 2124 529 L 2125 530 L 2125 531 L 2127 533 L 2127 534 L 2132 539 L 2133 539 L 2134 540 L 2135 540 L 2140 543 L 2143 543 L 2144 544 L 2153 544 L 2154 543 L 2158 543 L 2160 541 L 2162 541 L 2163 540 L 2164 540 L 2169 536 L 2169 515 L 2148 515 L 2148 524 L 2158 524 L 2159 525 L 2159 530 L 2157 532 L 2156 532 L 2153 534 L 2145 534 L 2144 533 L 2141 532 L 2136 527 L 2136 526 L 2134 523 L 2134 514 L 2135 513 L 2136 510 L 2142 504 L 2144 504 L 2145 503 L 2152 503 L 2153 504 L 2155 504 L 2156 505 L 2157 505 L 2160 508 L 2161 508 L 2163 506 L 2163 505 L 2165 503 L 2165 502 L 2167 500 L 2167 499 L 2165 497 L 2164 497 L 2159 494 L 2156 494 L 2155 493 L 2143 493 L 2142 494 Z" fill="#FFFFFF" fill-rule="evenodd"/>
  <path d="M 1336 494 L 1299 494 L 1298 495 L 1299 496 L 1299 541 L 1298 542 L 1299 543 L 1309 543 L 1309 525 L 1310 524 L 1332 524 L 1333 523 L 1333 515 L 1332 514 L 1310 514 L 1309 513 L 1309 505 L 1310 504 L 1335 504 L 1336 503 Z" fill="#FFFFFF" fill-rule="evenodd"/>
  <path d="M 1507 494 L 1507 543 L 1518 543 L 1518 494 Z" fill="#FFFFFF" fill-rule="evenodd"/>
  <path d="M 1549 494 L 1549 543 L 1584 543 L 1584 533 L 1560 533 L 1559 532 L 1559 494 Z" fill="#FFFFFF" fill-rule="evenodd"/>
  <path d="M 1611 494 L 1611 543 L 1621 543 L 1622 542 L 1622 495 L 1621 494 Z" fill="#FFFFFF" fill-rule="evenodd"/>
  <path d="M 1649 494 L 1648 495 L 1648 503 L 1649 504 L 1663 504 L 1664 505 L 1664 543 L 1674 543 L 1674 505 L 1675 504 L 1689 504 L 1690 503 L 1690 495 L 1689 494 Z" fill="#FFFFFF" fill-rule="evenodd"/>
  <path d="M 1824 494 L 1824 543 L 1835 543 L 1835 514 L 1836 513 L 1838 515 L 1838 516 L 1839 517 L 1840 520 L 1843 523 L 1843 524 L 1844 525 L 1844 526 L 1846 528 L 1846 529 L 1849 532 L 1849 531 L 1851 529 L 1851 528 L 1853 526 L 1853 525 L 1856 522 L 1856 521 L 1857 520 L 1857 519 L 1859 517 L 1860 514 L 1862 512 L 1863 513 L 1863 543 L 1873 543 L 1873 494 L 1861 494 L 1861 495 L 1859 497 L 1858 500 L 1854 505 L 1853 508 L 1851 510 L 1851 511 L 1849 514 L 1846 511 L 1846 510 L 1845 509 L 1844 506 L 1842 504 L 1842 503 L 1840 501 L 1840 500 L 1838 498 L 1838 497 L 1836 495 L 1836 494 Z" fill="#FFFFFF" fill-rule="evenodd"/>
  <path d="M 1977 494 L 1977 543 L 1988 543 L 1988 515 L 1989 514 L 1992 517 L 1992 518 L 1996 522 L 1996 523 L 1999 526 L 1999 527 L 2002 530 L 2002 531 L 2006 535 L 2006 536 L 2012 543 L 2020 543 L 2020 494 L 2010 494 L 2010 521 L 2009 522 L 2006 519 L 2006 518 L 2003 515 L 2003 514 L 2000 511 L 2000 510 L 1996 506 L 1996 505 L 1993 502 L 1993 501 L 1987 494 Z" fill="#FFFFFF" fill-rule="evenodd"/>
  <path d="M 2198 494 L 2198 543 L 2235 543 L 2235 533 L 2209 533 L 2208 532 L 2209 531 L 2208 530 L 2208 526 L 2209 525 L 2208 524 L 2209 523 L 2232 523 L 2232 514 L 2231 513 L 2209 513 L 2208 512 L 2208 505 L 2209 504 L 2234 504 L 2235 503 L 2235 494 Z" fill="#FFFFFF" fill-rule="evenodd"/>
  <path d="M 2264 494 L 2264 543 L 2274 543 L 2274 514 L 2275 513 L 2277 515 L 2278 518 L 2280 520 L 2280 521 L 2282 523 L 2282 524 L 2285 527 L 2285 528 L 2287 530 L 2287 531 L 2288 532 L 2289 531 L 2289 530 L 2291 528 L 2291 527 L 2293 525 L 2293 524 L 2295 522 L 2295 521 L 2297 519 L 2298 516 L 2300 514 L 2300 513 L 2301 512 L 2302 513 L 2302 543 L 2312 543 L 2312 494 L 2301 494 L 2297 499 L 2296 502 L 2294 504 L 2294 505 L 2292 507 L 2292 508 L 2291 509 L 2290 512 L 2288 514 L 2286 512 L 2286 511 L 2285 510 L 2285 509 L 2283 507 L 2282 504 L 2280 502 L 2280 501 L 2278 499 L 2277 496 L 2275 494 Z" fill="#FFFFFF" fill-rule="evenodd"/>
  <path d="M 2343 494 L 2343 543 L 2380 543 L 2380 533 L 2354 533 L 2353 532 L 2353 524 L 2354 523 L 2376 523 L 2377 522 L 2377 514 L 2376 513 L 2354 513 L 2353 512 L 2353 505 L 2354 504 L 2379 504 L 2379 494 Z" fill="#FFFFFF" fill-rule="evenodd"/>
  <path d="M 2408 494 L 2408 543 L 2418 543 L 2418 513 L 2419 512 L 2421 514 L 2421 515 L 2423 517 L 2423 518 L 2425 520 L 2425 521 L 2430 526 L 2430 527 L 2433 530 L 2433 531 L 2435 533 L 2435 534 L 2443 543 L 2451 543 L 2452 542 L 2452 494 L 2441 494 L 2441 521 L 2440 522 L 2437 519 L 2437 518 L 2433 514 L 2433 513 L 2427 506 L 2427 505 L 2425 503 L 2425 502 L 2421 498 L 2421 497 L 2418 494 Z" fill="#FFFFFF" fill-rule="evenodd"/>
  <path d="M 2478 494 L 2478 503 L 2479 504 L 2492 504 L 2493 505 L 2493 542 L 2494 543 L 2504 543 L 2504 505 L 2505 504 L 2518 504 L 2519 503 L 2519 494 Z" fill="#FFFFFF" fill-rule="evenodd"/>
</svg>