<?xml version="1.0" encoding="UTF-8"?>
<svg xmlns="http://www.w3.org/2000/svg" width="3000" height="750" viewBox="0 0 3000 750" role="img" aria-labelledby="title desc">
  <title id="title">AVENIR Facility Management horizontal logo</title>
  <desc id="desc">Clean hand-built SVG logo with transparent background for dark surfaces.</desc>
  <g id="symbol">
    <path d="M 255 610 L 515 88 L 715 445 L 592 445 L 516 307 L 398 530 L 521 530 L 573 610 Z" fill="#CF3339"/>
    <path d="M 160 610 C 260 545, 385 500, 545 500 C 710 500, 845 545, 968 610 L 820 610 C 738 570, 643 548, 548 548 C 453 548, 349 570, 252 610 Z" fill="#CF3339"/>
    <path d="M 511 168 L 662 444 L 355 444 Z" fill="#FFFFFF"/>
  </g>
  <g id="wordmark">
    <path d="M 1260.43 365.00 L 1248.05 324.54 L 1186.17 324.54 L 1173.79 365.00 L 1135.00 365.00 L 1194.98 194.35 L 1239.01 194.35 L 1299.22 365.00 L 1260.43 365.00 Z M 1227.11 254.81 Q 1225.92 250.76 1223.99 244.59 Q 1222.09 238.38 1220.20 231.98 Q 1218.30 225.55 1217.11 220.79 Q 1215.92 225.55 1213.87 232.58 Q 1211.87 239.57 1210.08 245.89 Q 1208.30 252.17 1207.37 254.81 L 1195.21 294.31 L 1239.50 294.31 L 1227.11 254.81 Z M 1461.92 195.05 L 1404.09 365.00 L 1364.82 365.00 L 1307.22 195.05 L 1343.63 195.05 L 1375.53 296.20 Q 1376.46 298.84 1378.25 305.87 Q 1380.03 312.86 1381.93 320.60 Q 1383.86 328.33 1384.57 333.58 Q 1385.28 328.33 1387.06 320.60 Q 1388.85 312.86 1390.74 305.87 Q 1392.68 298.84 1393.38 296.20 L 1425.51 195.05 L 1461.92 195.05 Z M 1589.14 365.00 L 1491.34 365.00 L 1491.34 195.05 L 1589.14 195.05 L 1589.14 224.58 L 1527.26 224.58 L 1527.26 261.95 L 1584.87 261.95 L 1584.87 291.44 L 1527.26 291.44 L 1527.26 335.25 L 1589.14 335.25 L 1589.14 365.00 Z M 1769.21 365.00 L 1723.51 365.00 L 1649.50 236.48 L 1648.54 236.48 Q 1649.02 248.60 1649.61 260.76 Q 1650.21 272.89 1650.69 285.05 L 1650.69 365.00 L 1618.56 365.00 L 1618.56 195.05 L 1664.01 195.05 L 1737.79 322.38 L 1738.53 322.38 Q 1738.27 310.48 1737.79 298.84 Q 1737.34 287.17 1736.86 275.53 L 1736.86 195.05 L 1769.21 195.05 L 1769.21 365.00 Z M 1862.18 365.00 L 1784.83 365.00 L 1784.83 344.55 L 1805.55 335.03 L 1805.55 225.06 L 1784.83 215.54 L 1784.83 195.05 L 1862.18 195.05 L 1862.18 215.54 L 1841.47 225.06 L 1841.47 335.03 L 1862.18 344.55 L 1862.18 365.00 Z M 1941.10 195.05 Q 1975.87 195.05 1992.38 207.70 Q 2008.93 220.30 2008.93 246.00 Q 2008.93 257.68 2004.50 266.38 Q 2000.12 275.04 1992.86 281.11 Q 1985.61 287.17 1977.28 291.00 L 2027.26 365.00 L 1987.29 365.00 L 1946.83 299.77 L 1927.53 299.77 L 1927.53 365.00 L 1891.60 365.00 L 1891.60 195.05 L 1941.10 195.05 Z M 1938.50 224.58 L 1927.53 224.58 L 1927.53 270.51 L 1939.20 270.51 Q 1957.05 270.51 1964.79 264.56 Q 1972.52 258.61 1972.52 246.97 Q 1972.52 234.81 1964.30 229.71 Q 1956.09 224.58 1938.50 224.58 Z" fill="#CF3339"/>
    <path d="M 1160.21 535.00 L 1149.48 535.00 L 1149.48 483.59 L 1178.93 483.59 L 1178.93 492.52 L 1160.21 492.52 L 1160.21 505.77 L 1177.63 505.77 L 1177.63 514.69 L 1160.21 514.69 L 1160.21 535.00 Z M 1226.88 535.00 L 1223.13 522.76 L 1204.41 522.76 L 1200.67 535.00 L 1188.93 535.00 L 1207.08 483.37 L 1220.40 483.37 L 1238.61 535.00 L 1226.88 535.00 Z M 1216.80 501.67 Q 1216.44 500.44 1215.85 498.57 Q 1215.28 496.69 1214.71 494.76 Q 1214.13 492.81 1213.77 491.37 Q 1213.41 492.81 1212.79 494.94 Q 1212.19 497.05 1211.65 498.97 Q 1211.11 500.87 1210.83 501.67 L 1207.15 513.61 L 1220.55 513.61 L 1216.80 501.67 Z M 1276.91 491.95 Q 1270.64 491.95 1267.33 496.63 Q 1264.03 501.31 1264.03 509.44 Q 1264.03 517.65 1267.09 522.15 Q 1270.14 526.65 1276.91 526.65 Q 1280.08 526.65 1283.21 525.93 Q 1286.35 525.21 1290.01 523.91 L 1290.01 533.05 Q 1286.63 534.43 1283.31 535.07 Q 1280.00 535.72 1275.90 535.72 Q 1267.98 535.72 1262.83 532.45 Q 1257.68 529.17 1255.23 523.23 Q 1252.79 517.29 1252.79 509.37 Q 1252.79 501.59 1255.59 495.61 Q 1258.40 489.64 1263.77 486.25 Q 1269.13 482.87 1276.91 482.87 Q 1280.72 482.87 1284.57 483.85 Q 1288.43 484.81 1291.96 486.47 L 1288.43 495.33 Q 1285.55 493.96 1282.63 492.96 Q 1279.72 491.95 1276.91 491.95 Z M 1327.66 535.00 L 1304.27 535.00 L 1304.27 528.81 L 1310.53 525.93 L 1310.53 492.67 L 1304.27 489.79 L 1304.27 483.59 L 1327.66 483.59 L 1327.66 489.79 L 1321.40 492.67 L 1321.40 525.93 L 1327.66 528.81 L 1327.66 535.00 Z M 1344.14 535.00 L 1344.14 483.59 L 1355.01 483.59 L 1355.01 526.00 L 1375.89 526.00 L 1375.89 535.00 L 1344.14 535.00 Z M 1411.60 535.00 L 1388.20 535.00 L 1388.20 528.81 L 1394.46 525.93 L 1394.46 492.67 L 1388.20 489.79 L 1388.20 483.59 L 1411.60 483.59 L 1411.60 489.79 L 1405.33 492.67 L 1405.33 525.93 L 1411.60 528.81 L 1411.60 535.00 Z M 1447.88 535.00 L 1437.01 535.00 L 1437.01 492.67 L 1423.04 492.67 L 1423.04 483.59 L 1461.85 483.59 L 1461.85 492.67 L 1447.88 492.67 L 1447.88 535.00 Z M 1494.32 504.76 L 1505.04 483.59 L 1516.78 483.59 L 1499.72 514.99 L 1499.72 535.00 L 1488.92 535.00 L 1488.92 515.35 L 1471.85 483.59 L 1483.66 483.59 L 1494.32 504.76 Z M 1592.37 535.00 L 1579.98 494.68 L 1579.69 494.68 Q 1579.77 496.12 1579.90 499.00 Q 1580.05 501.88 1580.20 505.15 Q 1580.34 508.43 1580.34 511.09 L 1580.34 535.00 L 1570.62 535.00 L 1570.62 483.59 L 1585.45 483.59 L 1597.62 522.91 L 1597.84 522.91 L 1610.73 483.59 L 1625.56 483.59 L 1625.56 535.00 L 1615.41 535.00 L 1615.41 510.67 Q 1615.41 508.21 1615.51 505.05 Q 1615.62 501.88 1615.72 499.03 Q 1615.84 496.19 1615.92 494.75 L 1615.62 494.75 L 1602.37 535.00 L 1592.37 535.00 Z M 1673.50 535.00 L 1669.76 522.76 L 1651.04 522.76 L 1647.29 535.00 L 1635.56 535.00 L 1653.70 483.37 L 1667.02 483.37 L 1685.24 535.00 L 1673.50 535.00 Z M 1663.42 501.67 Q 1663.06 500.44 1662.48 498.57 Q 1661.90 496.69 1661.33 494.76 Q 1660.76 492.81 1660.40 491.37 Q 1660.04 492.81 1659.42 494.94 Q 1658.81 497.05 1658.27 498.97 Q 1657.73 500.87 1657.45 501.67 L 1653.77 513.61 L 1667.17 513.61 L 1663.42 501.67 Z M 1747.29 535.00 L 1733.46 535.00 L 1711.08 496.12 L 1710.78 496.12 Q 1710.93 499.79 1711.11 503.47 Q 1711.29 507.13 1711.44 510.81 L 1711.44 535.00 L 1701.72 535.00 L 1701.72 483.59 L 1715.46 483.59 L 1737.78 522.11 L 1738.01 522.11 Q 1737.93 518.51 1737.78 514.99 Q 1737.65 511.45 1737.50 507.93 L 1737.50 483.59 L 1747.29 483.59 L 1747.29 535.00 Z M 1795.24 535.00 L 1791.49 522.76 L 1772.77 522.76 L 1769.03 535.00 L 1757.29 535.00 L 1775.44 483.37 L 1788.76 483.37 L 1806.97 535.00 L 1795.24 535.00 Z M 1785.16 501.67 Q 1784.80 500.44 1784.21 498.57 Q 1783.64 496.69 1783.07 494.76 Q 1782.49 492.81 1782.13 491.37 Q 1781.77 492.81 1781.15 494.94 Q 1780.55 497.05 1780.01 498.97 Q 1779.47 500.87 1779.18 501.67 L 1775.51 513.61 L 1788.90 513.61 L 1785.16 501.67 Z M 1842.96 506.13 L 1863.34 506.13 L 1863.34 532.77 Q 1859.30 534.13 1854.95 534.93 Q 1850.60 535.72 1845.05 535.72 Q 1833.53 535.72 1827.33 528.96 Q 1821.14 522.19 1821.14 509.23 Q 1821.14 501.16 1824.27 495.25 Q 1827.41 489.35 1833.38 486.11 Q 1839.36 482.87 1848.00 482.87 Q 1852.11 482.87 1856.07 483.73 Q 1860.03 484.60 1863.26 486.04 L 1859.66 494.75 Q 1857.29 493.53 1854.26 492.75 Q 1851.24 491.95 1847.93 491.95 Q 1843.18 491.95 1839.68 494.11 Q 1836.20 496.27 1834.28 500.19 Q 1832.38 504.11 1832.38 509.44 Q 1832.38 514.48 1833.74 518.37 Q 1835.12 522.25 1838.07 524.46 Q 1841.02 526.65 1845.77 526.65 Q 1848.08 526.65 1849.70 526.44 Q 1851.32 526.21 1852.68 525.93 L 1852.68 515.20 L 1842.96 515.20 L 1842.96 506.13 Z M 1909.41 535.00 L 1879.82 535.00 L 1879.82 483.59 L 1909.41 483.59 L 1909.41 492.52 L 1890.69 492.52 L 1890.69 503.83 L 1908.12 503.83 L 1908.12 512.75 L 1890.69 512.75 L 1890.69 526.00 L 1909.41 526.00 L 1909.41 535.00 Z M 1947.64 535.00 L 1935.25 494.68 L 1934.96 494.68 Q 1935.04 496.12 1935.17 499.00 Q 1935.32 501.88 1935.46 505.15 Q 1935.61 508.43 1935.61 511.09 L 1935.61 535.00 L 1925.89 535.00 L 1925.89 483.59 L 1940.72 483.59 L 1952.89 522.91 L 1953.11 522.91 L 1966.00 483.59 L 1980.82 483.59 L 1980.82 535.00 L 1970.68 535.00 L 1970.68 510.67 Q 1970.68 508.21 1970.78 505.05 Q 1970.89 501.88 1970.99 499.03 Q 1971.11 496.19 1971.18 494.75 L 1970.89 494.75 L 1957.64 535.00 L 1947.64 535.00 Z M 2026.89 535.00 L 1997.30 535.00 L 1997.30 483.59 L 2026.89 483.59 L 2026.89 492.52 L 2008.17 492.52 L 2008.17 503.83 L 2025.60 503.83 L 2025.60 512.75 L 2008.17 512.75 L 2008.17 526.00 L 2026.89 526.00 L 2026.89 535.00 Z M 2088.95 535.00 L 2075.12 535.00 L 2052.73 496.12 L 2052.44 496.12 Q 2052.59 499.79 2052.77 503.47 Q 2052.95 507.13 2053.09 510.81 L 2053.09 535.00 L 2043.37 535.00 L 2043.37 483.59 L 2057.12 483.59 L 2079.44 522.11 L 2079.66 522.11 Q 2079.59 518.51 2079.44 514.99 Q 2079.30 511.45 2079.16 507.93 L 2079.16 483.59 L 2088.95 483.59 L 2088.95 535.00 Z M 2125.23 535.00 L 2114.36 535.00 L 2114.36 492.67 L 2100.39 492.67 L 2100.39 483.59 L 2139.20 483.59 L 2139.20 492.67 L 2125.23 492.67 L 2125.23 535.00 Z" fill="#FFFFFF"/>
  </g>
</svg>