<?xml version="1.0" encoding="UTF-8"?>
<svg xmlns="http://www.w3.org/2000/svg" width="2048" height="1622" viewBox="0 0 2048 1622" version="1.1">
  <title>AVENIR Facility Management logo - original proportions, no Security text</title>
  <defs>
    <linearGradient id="redTop" gradientUnits="userSpaceOnUse" x1="0" y1="0" x2="0" y2="536">
      <stop offset="0%" stop-color="#EC3130"/>
      <stop offset="25%" stop-color="#E4302F"/>
      <stop offset="50%" stop-color="#DB2E2D"/>
      <stop offset="75%" stop-color="#D32B2B"/>
      <stop offset="100%" stop-color="#CB2A29"/>
    </linearGradient>
    <linearGradient id="redArc" gradientUnits="userSpaceOnUse" x1="0" y1="509" x2="0" y2="812">
      <stop offset="0%" stop-color="#CD2A29"/>
      <stop offset="25%" stop-color="#C82928"/>
      <stop offset="50%" stop-color="#C32827"/>
      <stop offset="75%" stop-color="#BF2626"/>
      <stop offset="100%" stop-color="#BA2525"/>
    </linearGradient>
    <linearGradient id="redText" gradientUnits="userSpaceOnUse" x1="0" y1="1539" x2="0" y2="1621">
      <stop offset="0%" stop-color="#DF2D2D"/>
      <stop offset="25%" stop-color="#D72C2C"/>
      <stop offset="50%" stop-color="#CF2A2A"/>
      <stop offset="75%" stop-color="#C72828"/>
      <stop offset="100%" stop-color="#BF2726"/>
    </linearGradient>
  </defs>
  <g id="avenir-logo" fill-rule="evenodd" clip-rule="evenodd">
    <path id="red-top-symbol" d="M 1024 1 L 1023 1 L 1019 10 L 1017 12 L 954 134 L 952 136 L 923 193 L 921 195 L 892 252 L 890 254 L 881 273 L 879 275 L 850 332 L 848 334 L 819 391 L 817 393 L 808 412 L 796 433 L 786 454 L 784 456 L 776 473 L 764 494 L 754 515 L 742 536 L 771 518 L 795 506 L 797 504 L 799 504 L 814 496 L 816 496 L 835 487 L 878 472 L 881 472 L 885 470 L 888 470 L 892 468 L 908 464 L 912 464 L 932 459 L 943 458 L 944 457 L 969 454 L 973 445 L 975 443 L 1028 340 L 1030 338 L 1060 279 L 1062 277 L 1102 199 L 1104 197 L 1112 180 L 1115 176 L 1115 174 L 1113 172 L 1105 155 L 1093 134 L 1084 115 L 1082 113 Z" fill="url(#redTop)"/>
    <path id="black-symbol-and-avenir" d="M 1148 237 L 1145 243 L 1143 245 L 1135 262 L 1133 264 L 1114 302 L 1112 304 L 1104 321 L 1102 323 L 1093 342 L 1091 344 L 1083 361 L 1081 363 L 1072 382 L 1070 384 L 1061 403 L 1059 405 L 1051 422 L 1049 424 L 1040 443 L 1038 445 L 1035 451 L 1040 451 L 1041 452 L 1059 452 L 1060 453 L 1071 453 L 1072 454 L 1081 454 L 1082 455 L 1097 456 L 1098 457 L 1103 457 L 1104 458 L 1109 458 L 1110 459 L 1115 459 L 1116 460 L 1120 460 L 1121 461 L 1130 462 L 1131 463 L 1134 463 L 1135 464 L 1138 464 L 1139 465 L 1143 465 L 1144 466 L 1147 466 L 1148 467 L 1155 468 L 1156 469 L 1162 470 L 1166 472 L 1169 472 L 1170 473 L 1172 473 L 1173 474 L 1175 474 L 1176 475 L 1178 475 L 1179 476 L 1181 476 L 1182 477 L 1184 477 L 1185 478 L 1187 478 L 1188 479 L 1190 479 L 1191 480 L 1199 482 L 1202 484 L 1204 484 L 1207 486 L 1212 487 L 1217 490 L 1219 490 L 1222 492 L 1224 492 L 1231 496 L 1233 496 L 1267 513 L 1269 515 L 1276 518 L 1278 520 L 1281 521 L 1283 523 L 1291 527 L 1296 531 L 1299 532 L 1304 536 L 1295 517 L 1293 515 L 1284 496 L 1282 494 L 1273 475 L 1271 473 L 1252 435 L 1250 433 L 1242 416 L 1240 414 L 1231 395 L 1229 393 L 1220 374 L 1218 372 L 1210 355 L 1208 353 L 1199 334 L 1197 332 L 1190 317 L 1188 315 L 1179 296 L 1177 294 L 1169 277 L 1167 275 Z
M 173 1042 L 172 1046 L 165 1060 L 165 1062 L 162 1067 L 162 1069 L 155 1083 L 155 1085 L 151 1092 L 151 1094 L 147 1101 L 147 1103 L 141 1115 L 141 1117 L 137 1124 L 137 1126 L 134 1131 L 134 1133 L 126 1149 L 126 1151 L 123 1156 L 123 1158 L 120 1163 L 120 1165 L 116 1172 L 116 1174 L 113 1179 L 113 1181 L 110 1186 L 110 1188 L 102 1204 L 102 1206 L 99 1211 L 99 1213 L 96 1218 L 96 1220 L 92 1227 L 92 1229 L 89 1234 L 89 1236 L 85 1243 L 85 1245 L 82 1250 L 82 1252 L 78 1259 L 78 1261 L 75 1266 L 75 1268 L 71 1275 L 71 1277 L 68 1282 L 68 1284 L 65 1289 L 65 1291 L 61 1298 L 61 1300 L 57 1307 L 57 1309 L 54 1314 L 54 1316 L 51 1321 L 51 1323 L 47 1330 L 47 1332 L 44 1337 L 44 1339 L 41 1344 L 41 1346 L 37 1353 L 37 1355 L 33 1362 L 33 1364 L 30 1369 L 30 1371 L 26 1378 L 26 1380 L 23 1385 L 23 1387 L 20 1392 L 20 1394 L 16 1401 L 16 1403 L 12 1410 L 12 1412 L 9 1417 L 9 1419 L 6 1424 L 6 1426 L 0 1438 L 70 1438 L 73 1433 L 73 1431 L 76 1426 L 76 1424 L 78 1421 L 78 1419 L 81 1414 L 81 1412 L 84 1407 L 84 1405 L 87 1400 L 87 1398 L 90 1393 L 90 1391 L 93 1386 L 93 1384 L 96 1379 L 96 1377 L 99 1372 L 99 1370 L 101 1367 L 101 1365 L 104 1360 L 104 1358 L 107 1353 L 107 1351 L 111 1343 L 298 1343 L 299 1344 L 299 1346 L 301 1349 L 301 1351 L 304 1356 L 304 1358 L 306 1361 L 306 1363 L 312 1375 L 312 1377 L 314 1380 L 314 1382 L 317 1387 L 317 1389 L 320 1394 L 320 1396 L 322 1399 L 322 1401 L 325 1406 L 325 1408 L 327 1411 L 327 1413 L 330 1418 L 330 1420 L 333 1425 L 333 1427 L 335 1430 L 335 1432 L 338 1438 L 410 1438 L 410 1436 L 406 1429 L 406 1427 L 403 1422 L 403 1420 L 399 1413 L 399 1411 L 392 1397 L 392 1395 L 389 1390 L 389 1388 L 386 1383 L 386 1381 L 378 1365 L 378 1363 L 375 1358 L 375 1356 L 371 1349 L 371 1347 L 368 1342 L 368 1340 L 365 1335 L 365 1333 L 361 1326 L 361 1324 L 358 1319 L 358 1317 L 354 1310 L 354 1308 L 351 1303 L 351 1301 L 347 1294 L 347 1292 L 344 1287 L 344 1285 L 341 1280 L 341 1278 L 333 1262 L 333 1260 L 330 1255 L 330 1253 L 326 1246 L 326 1244 L 323 1239 L 323 1237 L 320 1232 L 320 1230 L 312 1214 L 312 1212 L 309 1207 L 309 1205 L 306 1200 L 306 1198 L 302 1191 L 302 1189 L 299 1184 L 299 1182 L 296 1177 L 296 1175 L 288 1159 L 288 1157 L 285 1152 L 285 1150 L 281 1143 L 281 1141 L 278 1136 L 278 1134 L 275 1129 L 275 1127 L 271 1120 L 271 1118 L 264 1104 L 264 1102 L 257 1088 L 257 1086 L 254 1081 L 254 1079 L 251 1074 L 251 1072 L 247 1065 L 247 1063 L 243 1056 L 243 1054 L 240 1049 L 240 1047 L 237 1042 Z
M 364 1044 L 365 1048 L 367 1051 L 367 1053 L 369 1056 L 369 1058 L 372 1063 L 372 1065 L 374 1068 L 374 1070 L 377 1075 L 377 1077 L 379 1080 L 379 1082 L 381 1085 L 381 1087 L 384 1092 L 384 1094 L 386 1097 L 386 1099 L 388 1102 L 388 1104 L 391 1109 L 391 1111 L 393 1114 L 393 1116 L 395 1119 L 395 1121 L 398 1126 L 398 1128 L 400 1131 L 400 1133 L 402 1136 L 402 1138 L 405 1143 L 405 1145 L 407 1148 L 407 1150 L 410 1155 L 410 1157 L 412 1160 L 412 1162 L 414 1165 L 414 1167 L 417 1172 L 417 1174 L 419 1177 L 419 1179 L 421 1182 L 421 1184 L 424 1189 L 424 1191 L 426 1194 L 426 1196 L 428 1199 L 428 1201 L 431 1206 L 431 1208 L 433 1211 L 433 1213 L 435 1216 L 435 1218 L 438 1223 L 438 1225 L 440 1228 L 440 1230 L 443 1235 L 443 1237 L 445 1240 L 445 1242 L 447 1245 L 447 1247 L 450 1252 L 450 1254 L 452 1257 L 452 1259 L 455 1264 L 455 1266 L 457 1269 L 457 1271 L 459 1274 L 459 1276 L 462 1281 L 462 1283 L 464 1286 L 464 1288 L 466 1291 L 466 1293 L 469 1298 L 469 1300 L 471 1303 L 471 1305 L 473 1308 L 473 1310 L 476 1315 L 476 1317 L 478 1320 L 478 1322 L 480 1325 L 480 1327 L 483 1332 L 483 1334 L 485 1337 L 485 1339 L 488 1344 L 488 1346 L 490 1349 L 490 1351 L 492 1354 L 492 1356 L 495 1361 L 495 1363 L 497 1366 L 497 1368 L 500 1373 L 500 1375 L 502 1378 L 502 1380 L 504 1383 L 504 1385 L 507 1390 L 507 1392 L 509 1395 L 509 1397 L 511 1400 L 511 1402 L 513 1405 L 513 1407 L 516 1412 L 516 1414 L 519 1419 L 519 1421 L 521 1424 L 521 1426 L 523 1429 L 523 1431 L 525 1434 L 525 1436 L 528 1441 L 588 1441 L 589 1437 L 591 1434 L 591 1432 L 594 1427 L 594 1425 L 596 1422 L 596 1420 L 599 1415 L 599 1413 L 603 1405 L 603 1403 L 606 1398 L 606 1396 L 608 1393 L 608 1391 L 611 1386 L 611 1384 L 613 1381 L 613 1379 L 615 1376 L 615 1374 L 618 1369 L 618 1367 L 620 1364 L 620 1362 L 622 1359 L 622 1357 L 625 1352 L 625 1350 L 627 1347 L 627 1345 L 630 1340 L 630 1338 L 632 1335 L 632 1333 L 634 1330 L 634 1328 L 636 1325 L 636 1323 L 639 1318 L 639 1316 L 641 1313 L 641 1311 L 644 1306 L 644 1304 L 646 1301 L 646 1299 L 648 1296 L 648 1294 L 651 1289 L 651 1287 L 653 1284 L 653 1282 L 655 1279 L 655 1277 L 658 1272 L 658 1270 L 660 1267 L 660 1265 L 663 1260 L 663 1258 L 665 1255 L 665 1253 L 667 1250 L 667 1248 L 669 1245 L 669 1243 L 672 1238 L 672 1236 L 675 1231 L 675 1229 L 677 1226 L 677 1224 L 679 1221 L 679 1219 L 681 1216 L 681 1214 L 684 1209 L 684 1207 L 689 1197 L 689 1195 L 691 1192 L 691 1190 L 693 1187 L 693 1185 L 696 1180 L 696 1178 L 698 1175 L 698 1173 L 700 1170 L 700 1168 L 703 1163 L 703 1161 L 705 1158 L 705 1156 L 708 1151 L 708 1149 L 710 1146 L 710 1144 L 712 1141 L 712 1139 L 714 1136 L 714 1134 L 717 1129 L 717 1127 L 722 1117 L 722 1115 L 724 1112 L 724 1110 L 726 1107 L 726 1105 L 729 1100 L 729 1098 L 734 1088 L 734 1086 L 736 1083 L 736 1081 L 738 1078 L 738 1076 L 741 1071 L 741 1069 L 743 1066 L 743 1064 L 745 1061 L 745 1059 L 748 1054 L 748 1052 L 750 1049 L 751 1044 L 678 1044 L 677 1045 L 676 1049 L 674 1052 L 673 1057 L 671 1060 L 671 1062 L 667 1070 L 666 1075 L 664 1078 L 664 1080 L 662 1083 L 662 1085 L 658 1093 L 657 1098 L 655 1101 L 655 1103 L 653 1106 L 653 1108 L 649 1116 L 648 1121 L 646 1124 L 646 1126 L 642 1134 L 641 1139 L 639 1142 L 639 1144 L 637 1147 L 637 1149 L 633 1157 L 632 1162 L 630 1165 L 630 1167 L 628 1170 L 628 1172 L 624 1180 L 623 1185 L 621 1188 L 621 1190 L 619 1193 L 619 1195 L 615 1203 L 615 1205 L 612 1211 L 612 1213 L 610 1216 L 609 1221 L 607 1224 L 607 1226 L 605 1229 L 605 1231 L 601 1239 L 600 1244 L 598 1247 L 598 1249 L 596 1252 L 596 1254 L 592 1262 L 591 1267 L 589 1270 L 589 1272 L 587 1275 L 587 1277 L 583 1285 L 583 1287 L 580 1293 L 580 1295 L 578 1298 L 577 1303 L 575 1306 L 575 1308 L 573 1311 L 573 1313 L 569 1321 L 568 1326 L 566 1329 L 566 1331 L 564 1334 L 564 1336 L 562 1339 L 562 1341 L 559 1347 L 557 1345 L 556 1340 L 554 1337 L 554 1335 L 552 1332 L 552 1330 L 548 1322 L 547 1317 L 545 1314 L 545 1312 L 543 1309 L 543 1307 L 541 1304 L 541 1302 L 537 1294 L 536 1289 L 534 1286 L 534 1284 L 530 1276 L 529 1271 L 527 1268 L 527 1266 L 525 1263 L 525 1261 L 523 1258 L 523 1256 L 519 1248 L 518 1243 L 516 1240 L 516 1238 L 514 1235 L 514 1233 L 510 1225 L 509 1220 L 507 1217 L 507 1215 L 505 1212 L 505 1210 L 503 1207 L 503 1205 L 499 1197 L 498 1192 L 496 1189 L 496 1187 L 494 1184 L 494 1182 L 492 1179 L 492 1177 L 488 1169 L 487 1164 L 485 1161 L 485 1159 L 483 1156 L 483 1154 L 481 1151 L 481 1149 L 477 1141 L 476 1136 L 474 1133 L 474 1131 L 472 1128 L 472 1126 L 468 1118 L 467 1113 L 465 1110 L 465 1108 L 463 1105 L 463 1103 L 461 1100 L 461 1098 L 457 1090 L 456 1085 L 454 1082 L 454 1080 L 452 1077 L 452 1075 L 450 1072 L 450 1070 L 448 1067 L 448 1065 L 446 1062 L 445 1057 L 443 1054 L 443 1052 L 441 1049 L 440 1045 L 439 1044 Z
M 788 1044 L 787 1045 L 787 1438 L 1081 1438 L 1081 1376 L 856 1376 L 855 1375 L 855 1271 L 856 1270 L 1053 1270 L 1053 1208 L 856 1208 L 855 1207 L 855 1107 L 856 1106 L 1078 1106 L 1078 1044 Z
M 1140 1044 L 1140 1438 L 1208 1438 L 1208 1160 L 1209 1159 L 1216 1167 L 1216 1168 L 1219 1171 L 1219 1172 L 1223 1176 L 1223 1177 L 1226 1180 L 1226 1181 L 1229 1184 L 1229 1185 L 1240 1198 L 1240 1199 L 1243 1202 L 1243 1203 L 1246 1206 L 1246 1207 L 1250 1211 L 1250 1212 L 1253 1215 L 1253 1216 L 1257 1220 L 1257 1221 L 1260 1224 L 1260 1225 L 1264 1229 L 1264 1230 L 1267 1233 L 1267 1234 L 1270 1237 L 1270 1238 L 1274 1242 L 1274 1243 L 1277 1246 L 1277 1247 L 1280 1250 L 1280 1251 L 1284 1255 L 1284 1256 L 1287 1259 L 1287 1260 L 1298 1273 L 1298 1274 L 1301 1277 L 1301 1278 L 1304 1281 L 1304 1282 L 1308 1286 L 1308 1287 L 1311 1290 L 1311 1291 L 1315 1295 L 1315 1296 L 1318 1299 L 1318 1300 L 1322 1304 L 1322 1305 L 1325 1308 L 1325 1309 L 1328 1312 L 1328 1313 L 1332 1317 L 1332 1318 L 1335 1321 L 1335 1322 L 1339 1326 L 1339 1327 L 1342 1330 L 1342 1331 L 1346 1335 L 1346 1336 L 1349 1339 L 1349 1340 L 1352 1343 L 1352 1344 L 1356 1348 L 1356 1349 L 1359 1352 L 1359 1353 L 1362 1356 L 1362 1357 L 1366 1361 L 1366 1362 L 1369 1365 L 1369 1366 L 1373 1370 L 1373 1371 L 1376 1374 L 1376 1375 L 1387 1388 L 1387 1389 L 1390 1392 L 1390 1393 L 1393 1396 L 1393 1397 L 1397 1401 L 1397 1402 L 1400 1405 L 1400 1406 L 1403 1409 L 1403 1410 L 1407 1414 L 1407 1415 L 1410 1418 L 1410 1419 L 1414 1423 L 1414 1424 L 1417 1427 L 1417 1428 L 1421 1432 L 1421 1433 L 1424 1436 L 1424 1437 L 1425 1438 L 1483 1438 L 1483 1045 L 1482 1044 L 1415 1044 L 1415 1316 L 1414 1317 L 1203 1044 Z
M 1564 1044 L 1564 1438 L 1632 1438 L 1632 1045 L 1631 1044 Z
M 1713 1044 L 1713 1438 L 1781 1438 L 1781 1301 L 1782 1300 L 1868 1300 L 1870 1302 L 1872 1306 L 1875 1309 L 1877 1313 L 1880 1316 L 1880 1317 L 1882 1319 L 1884 1323 L 1887 1326 L 1889 1330 L 1892 1333 L 1892 1334 L 1894 1336 L 1896 1340 L 1899 1343 L 1901 1347 L 1904 1350 L 1904 1351 L 1906 1353 L 1908 1357 L 1911 1360 L 1913 1364 L 1916 1367 L 1918 1371 L 1921 1374 L 1925 1381 L 1933 1391 L 1937 1398 L 1945 1408 L 1949 1415 L 1957 1425 L 1961 1432 L 1966 1438 L 2047 1438 L 2039 1428 L 2035 1421 L 2029 1414 L 2025 1407 L 2022 1404 L 2022 1403 L 2017 1397 L 2015 1393 L 2012 1390 L 2010 1386 L 2004 1379 L 2000 1372 L 1997 1369 L 1995 1365 L 1992 1362 L 1990 1358 L 1987 1355 L 1985 1351 L 1982 1348 L 1980 1344 L 1977 1341 L 1975 1337 L 1972 1334 L 1970 1330 L 1967 1327 L 1965 1323 L 1962 1320 L 1960 1316 L 1957 1313 L 1955 1309 L 1952 1306 L 1950 1302 L 1947 1299 L 1947 1298 L 1941 1290 L 1942 1288 L 1945 1288 L 1946 1287 L 1954 1285 L 1957 1283 L 1959 1283 L 1964 1280 L 1966 1280 L 1974 1276 L 1976 1274 L 1979 1273 L 1981 1271 L 1988 1267 L 1991 1264 L 1992 1264 L 2000 1256 L 2002 1255 L 2002 1254 L 2013 1242 L 2013 1241 L 2017 1236 L 2018 1233 L 2020 1231 L 2024 1223 L 2024 1221 L 2026 1218 L 2026 1216 L 2028 1213 L 2028 1211 L 2030 1207 L 2030 1204 L 2031 1203 L 2031 1200 L 2032 1199 L 2032 1195 L 2033 1194 L 2033 1188 L 2034 1187 L 2034 1174 L 2035 1173 L 2035 1166 L 2034 1165 L 2034 1151 L 2033 1150 L 2033 1145 L 2032 1144 L 2031 1135 L 2029 1131 L 2028 1125 L 2024 1117 L 2024 1115 L 2020 1107 L 2018 1105 L 2017 1102 L 2015 1100 L 2013 1096 L 2010 1093 L 2010 1092 L 1994 1076 L 1993 1076 L 1986 1070 L 1980 1067 L 1978 1065 L 1964 1058 L 1962 1058 L 1959 1056 L 1957 1056 L 1956 1055 L 1954 1055 L 1953 1054 L 1951 1054 L 1950 1053 L 1948 1053 L 1944 1051 L 1941 1051 L 1940 1050 L 1937 1050 L 1936 1049 L 1932 1049 L 1931 1048 L 1927 1048 L 1926 1047 L 1912 1046 L 1911 1045 L 1894 1045 L 1893 1044 Z
M 1781 1107 L 1782 1106 L 1893 1106 L 1894 1107 L 1903 1107 L 1904 1108 L 1914 1109 L 1918 1111 L 1924 1112 L 1927 1114 L 1929 1114 L 1935 1117 L 1937 1119 L 1941 1121 L 1944 1124 L 1945 1124 L 1952 1131 L 1952 1132 L 1957 1138 L 1960 1144 L 1960 1146 L 1962 1149 L 1962 1152 L 1963 1153 L 1963 1156 L 1964 1157 L 1964 1163 L 1965 1164 L 1965 1181 L 1964 1182 L 1964 1187 L 1963 1188 L 1962 1195 L 1960 1198 L 1960 1200 L 1958 1204 L 1956 1206 L 1955 1209 L 1951 1213 L 1951 1214 L 1939 1225 L 1938 1225 L 1936 1227 L 1933 1228 L 1931 1230 L 1927 1232 L 1925 1232 L 1922 1234 L 1920 1234 L 1916 1236 L 1909 1237 L 1908 1238 L 1904 1238 L 1903 1239 L 1895 1239 L 1894 1240 L 1782 1240 L 1781 1239 Z
M 204 1124 L 206 1126 L 206 1128 L 209 1133 L 209 1135 L 212 1140 L 212 1142 L 215 1147 L 215 1149 L 218 1154 L 218 1156 L 222 1163 L 222 1165 L 224 1168 L 224 1170 L 228 1177 L 228 1179 L 231 1184 L 231 1186 L 234 1191 L 234 1193 L 237 1198 L 237 1200 L 241 1207 L 241 1209 L 244 1214 L 244 1216 L 247 1221 L 247 1223 L 250 1228 L 250 1230 L 253 1235 L 253 1237 L 256 1242 L 256 1244 L 259 1249 L 259 1251 L 263 1258 L 263 1260 L 266 1265 L 266 1267 L 272 1279 L 272 1281 L 271 1282 L 137 1282 L 136 1281 L 143 1267 L 143 1265 L 145 1262 L 145 1260 L 152 1246 L 152 1244 L 154 1241 L 154 1239 L 161 1225 L 161 1223 L 164 1218 L 164 1216 L 166 1213 L 166 1211 L 173 1197 L 173 1195 L 175 1192 L 175 1190 L 178 1185 L 178 1183 L 185 1169 L 185 1167 L 187 1164 L 187 1162 L 190 1157 L 190 1155 L 193 1150 L 193 1148 L 196 1143 L 196 1141 L 199 1136 L 199 1134 Z" fill="#000000"/>
    <path id="red-arc" d="M 598 810 L 598 812 L 781 812 L 791 796 L 804 779 L 836 746 L 863 725 L 891 708 L 927 692 L 961 682 L 982 679 L 983 678 L 1000 677 L 1001 676 L 1046 676 L 1047 677 L 1056 677 L 1057 678 L 1076 680 L 1105 687 L 1142 701 L 1175 719 L 1204 740 L 1237 772 L 1256 796 L 1266 812 L 1449 812 L 1446 801 L 1440 786 L 1422 748 L 1407 722 L 1393 701 L 1379 682 L 1357 656 L 1327 626 L 1301 604 L 1264 578 L 1242 565 L 1206 547 L 1204 547 L 1179 536 L 1145 525 L 1125 520 L 1121 520 L 1116 518 L 1089 514 L 1088 513 L 1081 513 L 1080 512 L 1073 512 L 1072 511 L 1062 511 L 1061 510 L 1046 510 L 1045 509 L 1002 509 L 1001 510 L 975 511 L 974 512 L 959 513 L 958 514 L 931 518 L 892 528 L 863 538 L 843 547 L 841 547 L 828 554 L 826 554 L 798 569 L 765 590 L 746 604 L 720 626 L 690 656 L 668 682 L 642 719 L 625 748 L 610 779 Z" fill="url(#redArc)"/>
    <path id="red-facility-management" d="M 264 1539 L 263 1540 L 261 1540 L 255 1543 L 253 1545 L 249 1547 L 244 1552 L 244 1553 L 240 1558 L 237 1564 L 236 1570 L 235 1571 L 235 1589 L 236 1590 L 236 1593 L 238 1596 L 239 1600 L 241 1602 L 243 1606 L 251 1614 L 254 1615 L 256 1617 L 260 1619 L 262 1619 L 263 1620 L 266 1620 L 267 1621 L 287 1621 L 288 1620 L 293 1619 L 301 1615 L 305 1611 L 306 1611 L 309 1608 L 309 1607 L 298 1596 L 294 1600 L 293 1600 L 288 1604 L 282 1605 L 281 1606 L 273 1606 L 272 1605 L 269 1605 L 265 1603 L 259 1598 L 259 1597 L 256 1594 L 254 1590 L 254 1588 L 253 1587 L 253 1572 L 257 1564 L 264 1557 L 270 1554 L 284 1554 L 298 1562 L 309 1550 L 300 1543 L 296 1541 L 291 1540 L 290 1539 L 287 1539 L 286 1538 L 269 1538 L 268 1539 Z
M 1404 1541 L 1400 1544 L 1397 1545 L 1387 1555 L 1381 1567 L 1381 1571 L 1380 1572 L 1380 1588 L 1381 1589 L 1381 1593 L 1383 1596 L 1383 1598 L 1387 1605 L 1396 1614 L 1397 1614 L 1399 1616 L 1403 1618 L 1405 1618 L 1408 1620 L 1411 1620 L 1412 1621 L 1433 1621 L 1434 1620 L 1440 1619 L 1450 1614 L 1452 1612 L 1457 1609 L 1457 1574 L 1422 1574 L 1422 1589 L 1439 1589 L 1440 1590 L 1440 1601 L 1433 1605 L 1430 1605 L 1429 1606 L 1417 1606 L 1416 1605 L 1414 1605 L 1410 1603 L 1403 1597 L 1398 1587 L 1398 1573 L 1399 1572 L 1399 1570 L 1402 1564 L 1408 1558 L 1416 1554 L 1429 1554 L 1430 1555 L 1432 1555 L 1433 1556 L 1437 1557 L 1443 1562 L 1444 1560 L 1449 1555 L 1449 1554 L 1454 1549 L 1448 1544 L 1440 1540 L 1437 1540 L 1436 1539 L 1433 1539 L 1432 1538 L 1414 1538 L 1413 1539 L 1410 1539 L 1409 1540 Z
M 70 1539 L 8 1539 L 8 1620 L 25 1620 L 25 1590 L 27 1588 L 64 1588 L 64 1573 L 26 1573 L 25 1572 L 25 1556 L 26 1555 L 70 1555 Z
M 143 1539 L 141 1543 L 141 1545 L 138 1550 L 138 1552 L 135 1557 L 135 1559 L 132 1564 L 132 1566 L 130 1569 L 130 1571 L 126 1578 L 126 1580 L 124 1583 L 124 1585 L 121 1590 L 121 1592 L 118 1597 L 118 1599 L 115 1604 L 115 1606 L 112 1611 L 112 1613 L 109 1618 L 109 1620 L 126 1620 L 129 1614 L 129 1612 L 131 1609 L 131 1607 L 134 1602 L 168 1602 L 170 1604 L 170 1606 L 172 1609 L 172 1611 L 174 1614 L 174 1616 L 176 1620 L 194 1620 L 191 1614 L 191 1612 L 188 1607 L 188 1605 L 186 1602 L 186 1600 L 183 1595 L 183 1593 L 180 1588 L 180 1586 L 177 1581 L 177 1579 L 174 1574 L 174 1572 L 171 1567 L 171 1565 L 168 1560 L 168 1558 L 163 1548 L 163 1546 L 160 1541 L 160 1539 Z
M 356 1539 L 356 1620 L 373 1620 L 373 1539 Z
M 425 1539 L 425 1620 L 483 1620 L 483 1605 L 443 1605 L 442 1604 L 442 1539 Z
M 528 1539 L 528 1620 L 545 1620 L 545 1539 Z
M 591 1539 L 591 1555 L 615 1555 L 616 1556 L 616 1620 L 633 1620 L 633 1556 L 634 1555 L 658 1555 L 658 1539 Z
M 695 1539 L 700 1546 L 701 1549 L 707 1557 L 708 1560 L 712 1565 L 713 1568 L 719 1576 L 720 1579 L 722 1581 L 726 1588 L 726 1620 L 743 1620 L 743 1589 L 745 1585 L 751 1577 L 752 1574 L 758 1566 L 759 1563 L 765 1555 L 766 1552 L 768 1550 L 768 1549 L 775 1539 L 755 1539 L 752 1545 L 748 1550 L 743 1560 L 741 1562 L 741 1563 L 739 1565 L 738 1568 L 735 1572 L 715 1539 Z
M 883 1539 L 883 1620 L 900 1620 L 900 1569 L 901 1568 L 908 1578 L 908 1579 L 910 1581 L 910 1582 L 912 1584 L 912 1585 L 914 1587 L 914 1588 L 916 1590 L 916 1591 L 918 1593 L 918 1594 L 920 1596 L 920 1597 L 922 1599 L 923 1602 L 925 1600 L 926 1597 L 929 1594 L 932 1588 L 946 1568 L 947 1569 L 947 1620 L 964 1620 L 964 1539 L 945 1539 L 942 1545 L 938 1550 L 937 1553 L 933 1558 L 932 1561 L 930 1563 L 930 1564 L 928 1566 L 927 1569 L 924 1573 L 922 1572 L 922 1571 L 918 1566 L 917 1563 L 913 1558 L 912 1555 L 910 1553 L 909 1550 L 905 1545 L 902 1539 Z
M 1043 1539 L 1040 1544 L 1040 1546 L 1037 1551 L 1037 1553 L 1035 1556 L 1035 1558 L 1032 1563 L 1032 1565 L 1029 1570 L 1029 1572 L 1026 1577 L 1026 1579 L 1023 1584 L 1023 1586 L 1020 1591 L 1020 1593 L 1017 1598 L 1017 1600 L 1014 1605 L 1014 1607 L 1012 1610 L 1012 1612 L 1008 1620 L 1026 1620 L 1026 1618 L 1028 1615 L 1028 1613 L 1030 1610 L 1030 1608 L 1032 1604 L 1034 1602 L 1068 1602 L 1071 1608 L 1071 1610 L 1074 1615 L 1074 1617 L 1076 1620 L 1094 1620 L 1091 1615 L 1091 1613 L 1088 1608 L 1088 1606 L 1085 1601 L 1085 1599 L 1082 1594 L 1082 1592 L 1079 1587 L 1079 1585 L 1077 1582 L 1077 1580 L 1074 1575 L 1074 1573 L 1071 1568 L 1071 1566 L 1068 1561 L 1068 1559 L 1065 1554 L 1065 1552 L 1062 1547 L 1062 1545 L 1059 1539 Z
M 1138 1539 L 1138 1620 L 1155 1620 L 1155 1570 L 1156 1569 L 1160 1574 L 1160 1575 L 1163 1578 L 1163 1579 L 1166 1582 L 1166 1583 L 1169 1586 L 1169 1587 L 1173 1591 L 1173 1592 L 1176 1595 L 1176 1596 L 1179 1599 L 1179 1600 L 1182 1603 L 1182 1604 L 1186 1608 L 1186 1609 L 1195 1620 L 1210 1620 L 1210 1539 L 1193 1539 L 1193 1588 L 1192 1589 L 1189 1586 L 1189 1585 L 1186 1582 L 1186 1581 L 1183 1578 L 1183 1577 L 1180 1574 L 1180 1573 L 1176 1569 L 1176 1568 L 1173 1565 L 1173 1564 L 1170 1561 L 1170 1560 L 1167 1557 L 1167 1556 L 1164 1553 L 1164 1552 L 1160 1548 L 1160 1547 L 1157 1544 L 1157 1543 L 1154 1540 L 1154 1539 Z
M 1288 1539 L 1287 1543 L 1281 1555 L 1281 1557 L 1278 1562 L 1278 1564 L 1275 1569 L 1275 1571 L 1272 1576 L 1272 1578 L 1269 1583 L 1269 1585 L 1266 1590 L 1266 1592 L 1264 1595 L 1264 1597 L 1260 1604 L 1260 1606 L 1258 1609 L 1258 1611 L 1255 1616 L 1254 1620 L 1271 1620 L 1274 1614 L 1274 1612 L 1277 1607 L 1277 1605 L 1279 1602 L 1313 1602 L 1315 1604 L 1315 1606 L 1317 1609 L 1317 1611 L 1320 1616 L 1321 1620 L 1339 1620 L 1337 1616 L 1337 1614 L 1334 1609 L 1334 1607 L 1331 1602 L 1331 1600 L 1328 1595 L 1328 1593 L 1325 1588 L 1325 1586 L 1323 1583 L 1323 1581 L 1320 1576 L 1320 1574 L 1317 1569 L 1317 1567 L 1314 1562 L 1314 1560 L 1311 1555 L 1311 1553 L 1309 1550 L 1309 1548 L 1306 1543 L 1305 1539 Z
M 1505 1539 L 1505 1620 L 1567 1620 L 1567 1605 L 1523 1605 L 1522 1604 L 1522 1588 L 1523 1587 L 1561 1587 L 1561 1572 L 1523 1572 L 1522 1571 L 1522 1555 L 1523 1554 L 1566 1554 L 1566 1539 Z
M 1614 1539 L 1614 1620 L 1631 1620 L 1631 1569 L 1632 1568 L 1634 1570 L 1634 1571 L 1638 1576 L 1639 1579 L 1641 1581 L 1641 1582 L 1643 1584 L 1643 1585 L 1645 1587 L 1645 1588 L 1647 1590 L 1647 1591 L 1654 1601 L 1656 1600 L 1656 1599 L 1658 1597 L 1658 1596 L 1660 1594 L 1660 1593 L 1662 1591 L 1662 1590 L 1664 1588 L 1664 1587 L 1666 1585 L 1666 1584 L 1668 1582 L 1668 1581 L 1670 1579 L 1670 1578 L 1677 1568 L 1678 1569 L 1678 1620 L 1695 1620 L 1695 1539 L 1676 1539 L 1675 1542 L 1671 1547 L 1670 1550 L 1666 1555 L 1665 1558 L 1663 1560 L 1660 1566 L 1658 1568 L 1657 1571 L 1655 1573 L 1653 1572 L 1652 1569 L 1648 1564 L 1647 1561 L 1643 1556 L 1642 1553 L 1638 1548 L 1637 1545 L 1635 1543 L 1633 1539 Z
M 1746 1539 L 1746 1620 L 1807 1620 L 1807 1605 L 1764 1605 L 1763 1604 L 1763 1588 L 1764 1587 L 1802 1587 L 1802 1572 L 1764 1572 L 1763 1571 L 1763 1555 L 1764 1554 L 1807 1554 L 1807 1539 Z
M 1855 1539 L 1855 1620 L 1872 1620 L 1872 1570 L 1873 1569 L 1881 1579 L 1881 1580 L 1884 1583 L 1884 1584 L 1887 1587 L 1887 1588 L 1890 1591 L 1890 1592 L 1894 1596 L 1894 1597 L 1897 1600 L 1897 1601 L 1900 1604 L 1900 1605 L 1903 1608 L 1903 1609 L 1906 1612 L 1906 1613 L 1912 1620 L 1927 1620 L 1927 1539 L 1910 1539 L 1910 1588 L 1909 1589 L 1904 1583 L 1904 1582 L 1900 1578 L 1900 1577 L 1897 1574 L 1897 1573 L 1894 1570 L 1894 1569 L 1891 1566 L 1891 1565 L 1888 1562 L 1888 1561 L 1885 1558 L 1885 1557 L 1881 1553 L 1881 1552 L 1878 1549 L 1878 1548 L 1875 1545 L 1875 1544 L 1871 1539 Z
M 1972 1539 L 1972 1555 L 1996 1555 L 1997 1556 L 1997 1620 L 2014 1620 L 2014 1556 L 2015 1555 L 2039 1555 L 2039 1539 Z
M 151 1560 L 155 1567 L 155 1569 L 157 1572 L 157 1574 L 161 1582 L 161 1584 L 162 1585 L 161 1587 L 141 1587 L 140 1586 L 142 1582 L 142 1580 L 144 1577 L 144 1575 L 146 1572 L 146 1570 L 148 1567 L 148 1565 Z
M 1051 1560 L 1054 1566 L 1054 1568 L 1056 1571 L 1056 1573 L 1058 1576 L 1058 1578 L 1062 1586 L 1061 1587 L 1040 1587 L 1039 1586 L 1041 1583 L 1041 1581 L 1044 1576 L 1044 1574 L 1046 1571 L 1046 1569 L 1048 1566 L 1048 1564 Z
M 1296 1560 L 1298 1562 L 1298 1564 L 1300 1567 L 1300 1569 L 1302 1572 L 1302 1574 L 1304 1577 L 1304 1579 L 1307 1584 L 1307 1586 L 1306 1587 L 1286 1587 L 1285 1586 L 1287 1582 L 1287 1580 L 1290 1575 L 1290 1573 L 1292 1570 L 1292 1568 L 1294 1565 L 1294 1563 Z" fill="url(#redText)"/>
  </g>
</svg>
